<svg width="785" height="858" viewBox="0 0 785 858" fill="none" xmlns="http://www.w3.org/2000/svg">
<rect x="563.105" y="13.0742" width="21.6483" height="328.495" fill="#042862"/>
<ellipse cx="573.027" cy="21.2459" rx="22.5503" ry="21.2459" fill="#042862"/>
<path d="M678.133 61.7753C638.706 27.2094 584.753 40.7886 584.753 40.7886V96.3413C584.753 96.3413 632.481 73.8118 667.757 107.143C703.034 140.475 785 83.9964 785 83.9964V31.052C785 31.052 717.559 96.3413 678.133 61.7753Z" fill="#3A6EA5"/>
<path d="M678.133 107.326C638.706 76.6734 584.753 88.7154 584.753 88.7154V137.979C584.753 137.979 632.481 118 667.757 147.558C703.034 177.117 785 127.032 785 127.032V80.0811C785 80.0811 717.559 137.979 678.133 107.326Z" fill="#5AAD80"/>
<path d="M678.133 92.359C638.706 76.7065 584.753 82.8555 584.753 82.8555V108.011C584.753 108.011 632.481 97.8094 667.757 112.903C703.034 127.997 785 102.421 785 102.421V78.4465C785 78.4465 717.559 108.011 678.133 92.359Z" fill="#E05555"/>
<path fill-rule="evenodd" clip-rule="evenodd" d="M544.852 170.531L543.659 171.647L543.785 224.842C543.911 278.035 543.911 278.037 542.881 278.671C542.315 279.019 541.851 279.587 541.851 279.931C541.851 281.232 539.469 281.951 533.73 282.382C523.8 283.126 520.539 283.493 519.087 284.027C518.309 284.314 516.783 284.548 515.696 284.548H513.719V234.094C513.719 177.959 513.865 180.442 510.573 180.446C508.456 180.449 496.468 182.052 493.877 182.679C492.771 182.947 490.624 183.384 489.104 183.652C487.585 183.919 486.228 184.253 486.09 184.394C485.798 184.692 482 185.691 479.811 186.046C478.982 186.18 478.078 186.445 477.801 186.636C477.525 186.826 476.395 187.127 475.29 187.305C474.185 187.482 472.834 187.897 472.289 188.226C471.745 188.556 470.706 188.825 469.981 188.825C467.327 188.825 467.135 189.514 466.789 200.295C466.375 213.18 466.394 241.257 466.834 266.242C467.382 297.402 467.566 295.695 463.516 297.077C458.378 298.832 455.105 300.167 452.182 301.702C450.8 302.428 448.496 303.53 447.062 304.152C445.627 304.774 444.314 305.48 444.144 305.722C443.973 305.965 443.423 306.163 442.92 306.163C442.417 306.163 441.746 306.438 441.427 306.775C441.109 307.112 439.842 307.61 438.611 307.883C436.876 308.266 436.304 308.624 436.06 309.475C435.887 310.08 435.545 310.574 435.299 310.574C434.91 310.574 434.493 222.346 434.835 212.528C434.924 209.97 434.748 208.824 434.137 208.006C433.081 206.591 430.888 206.554 429.267 207.925C428.125 208.892 423.506 211.931 421.759 212.866C420.059 213.776 411.427 219.636 410.783 220.318C410.414 220.708 409.899 221.027 409.638 221.027C408.711 221.027 399.316 228.042 393.697 232.93C391.514 234.828 389.256 236.513 388.679 236.674C388.102 236.835 387.636 237.301 387.643 237.709C387.65 238.117 387.625 251.85 387.588 268.227C387.551 284.603 387.558 417.004 387.605 562.452C387.664 748.999 387.849 828.33 388.234 831.754C388.534 834.422 388.818 841.106 388.864 846.606C388.951 856.968 389.153 858 391.096 858C392.257 858 393.65 856.443 394.405 854.3C394.757 853.303 395.458 851.295 395.964 849.839C396.469 848.384 397.035 846.994 397.222 846.752C397.408 846.509 397.721 845.652 397.917 844.847C398.113 844.042 398.59 842.851 398.977 842.201C399.364 841.549 399.681 840.769 399.683 840.466C399.685 840.163 399.867 839.914 400.089 839.914C400.311 839.914 400.914 838.872 401.429 837.598C401.945 836.325 402.498 835.183 402.659 835.062C402.82 834.941 403.73 833.551 404.682 831.974C405.633 830.397 406.707 828.844 407.068 828.524C407.429 828.203 407.724 827.752 407.724 827.521C407.724 826.982 411.831 821.215 412.354 821.02C412.57 820.939 412.747 820.672 412.747 820.427C412.747 820.016 417.14 813.95 417.802 813.447C417.962 813.326 419.077 812.036 420.281 810.58C421.484 809.124 423.334 807.141 424.39 806.173C425.447 805.205 426.311 804.293 426.311 804.146C426.311 803.358 449.896 782.572 450.797 782.566C451.006 782.565 452.467 781.473 454.044 780.14C455.62 778.807 457.046 777.717 457.213 777.717C457.544 777.717 460.955 775.429 462.968 773.858C463.667 773.313 465.594 771.927 467.252 770.78C468.91 769.632 470.718 768.328 471.271 767.882C471.823 767.436 473.067 766.644 474.034 766.122C475.001 765.6 476.238 764.813 476.783 764.373C477.327 763.934 479.023 762.836 480.55 761.935C482.077 761.034 484.215 759.651 485.302 758.861C486.387 758.072 487.524 757.425 487.827 757.425C488.131 757.425 488.752 757.078 489.208 756.653C490.258 755.677 491.504 754.779 491.807 754.779C491.936 754.779 495.229 752.893 499.125 750.588C503.021 748.283 506.341 746.397 506.501 746.397C506.662 746.397 507.65 745.802 508.696 745.074C509.742 744.346 510.849 743.751 511.154 743.751C511.46 743.751 511.71 743.575 511.71 743.361C511.71 743.147 512.105 742.846 512.589 742.692C513.644 742.358 514.955 741.667 517.073 740.332C517.939 739.786 518.867 739.34 519.136 739.34C519.405 739.34 519.909 739.038 520.257 738.67C520.908 737.982 531.938 731.841 532.524 731.841C532.704 731.841 533.124 731.636 533.458 731.385C534.781 730.393 540.9 726.988 541.361 726.988C541.63 726.988 541.851 726.79 541.851 726.547C541.851 726.305 542.071 726.106 542.339 726.106C542.801 726.106 547.347 723.536 547.879 722.973C548.017 722.827 548.967 722.362 549.991 721.94C551.013 721.518 552.438 720.695 553.156 720.111C553.874 719.526 554.63 719.048 554.836 719.048C555.042 719.048 555.652 718.751 556.192 718.388C556.731 718.025 558.077 717.134 559.182 716.408C560.287 715.682 561.418 714.933 561.694 714.742C561.97 714.551 563.666 713.416 565.461 712.221C569.118 709.789 576.153 703.761 578.088 701.403C579.395 699.81 581.384 696.605 582.74 693.904C585.082 689.242 584.946 703.928 585.131 436.25C585.304 185.65 585.302 185.073 584.3 183.874C583.747 183.213 582.278 182.326 581.034 181.901C579.791 181.477 577.801 180.678 576.612 180.126C575.423 179.573 574.224 179.121 573.947 179.121C573.402 179.121 570.157 177.884 566.299 176.206C564.964 175.626 563.438 175.151 562.909 175.151C562.379 175.151 561.945 174.979 561.945 174.77C561.945 174.56 560.872 174.045 559.559 173.625C558.246 173.206 556.46 172.583 555.59 172.242C554.719 171.901 553.784 171.622 553.512 171.622C553.24 171.622 552.37 171.325 551.579 170.963C550.787 170.601 549.758 170.303 549.29 170.301C548.823 170.3 548.301 170.1 548.13 169.857C547.581 169.077 546.078 169.386 544.852 170.531ZM203.204 177.084C202.479 177.416 201.123 177.802 200.19 177.94C198.123 178.248 193.249 179.31 192.216 179.678C191.801 179.825 190.445 180.145 189.201 180.388C182.372 181.724 178.73 182.604 177.899 183.121C177.622 183.292 176.417 183.574 175.22 183.748C174.023 183.921 172.441 184.339 171.704 184.677C170.967 185.015 169.89 185.292 169.311 185.294C168.732 185.295 167.884 185.66 167.427 186.103C166.664 186.844 166.594 191.079 166.58 237.824C166.566 281.893 166.465 288.854 165.826 289.595C164.856 290.721 164.895 291.16 165.968 291.188C166.452 291.2 165.604 291.615 164.084 292.108C162.564 292.602 160.609 293.286 159.738 293.629C158.868 293.972 157.807 294.252 157.382 294.252C156.956 294.252 156.468 294.451 156.298 294.694C156.127 294.936 155.605 295.136 155.138 295.137C154.67 295.139 153.641 295.437 152.849 295.799C152.058 296.162 151.012 296.458 150.525 296.458C150.037 296.458 149.358 296.756 149.013 297.12C148.669 297.484 148.187 297.781 147.942 297.781C147.696 297.781 145.486 298.873 143.029 300.208C140.573 301.542 138.34 302.634 138.068 302.634C137.797 302.634 136.941 302.922 136.166 303.275C134.877 303.863 134.701 303.844 134.071 303.054C133.693 302.58 132.967 302.193 132.458 302.193C131.562 302.193 131.532 300.468 131.545 251.319C131.556 213.486 131.41 200.201 130.975 199.488C130.192 198.203 128.319 198.257 126.013 199.633C124.997 200.239 123.878 200.736 123.528 200.736C123.178 200.736 122.891 200.934 122.891 201.177C122.891 201.419 122.638 201.618 122.329 201.618C122.02 201.618 120.382 202.362 118.689 203.272C114.108 205.734 113.664 205.966 112.859 206.317C111.704 206.821 104.13 211.419 103.39 212.066C103.024 212.385 102.57 212.646 102.379 212.646C102.189 212.646 101.471 213.098 100.783 213.651C100.095 214.204 98.7408 215.139 97.7738 215.73C96.8068 216.321 95.2244 217.455 94.2574 218.25C93.2903 219.046 92.3198 219.698 92.1003 219.7C91.8813 219.702 91.0901 220.211 90.3421 220.832C89.5946 221.452 88.3753 222.281 87.6334 222.675C86.8909 223.068 86.168 223.801 86.0264 224.304C85.8852 224.806 85.726 249.281 85.6727 278.691C85.5793 330.307 85.5431 332.192 84.6359 332.949C84.119 333.38 83.4162 333.99 83.0741 334.305C82.1271 335.177 81.6514 335.559 78.9789 337.59C77.6211 338.622 75.5866 340.334 74.4578 341.393C73.329 342.452 70.8795 344.709 69.0143 346.408C67.1491 348.108 65.6234 349.651 65.6234 349.839C65.6234 350.026 65.2939 350.291 64.8915 350.426C64.4886 350.562 63.5598 351.526 62.8273 352.569C62.0949 353.612 61.2374 354.666 60.9219 354.91C60.075 355.569 57.0835 359.001 57.0835 359.315C57.0835 359.464 56.3973 360.22 55.5588 360.995C54.7199 361.771 53.347 363.447 52.5076 364.721C51.6681 365.995 50.8976 367.037 50.7951 367.037C50.6926 367.037 50.5931 344.285 50.5745 316.478C50.5554 288.67 50.4168 265.743 50.2656 265.529C50.1149 265.314 49.2297 265.139 48.2984 265.139C46.5371 265.139 45.0271 266.069 45.0271 267.155C45.0271 267.502 44.8573 267.787 44.6503 267.789C44.4434 267.79 43.7115 268.534 43.0247 269.443C42.3375 270.351 41.377 271.415 40.8898 271.807C40.4025 272.2 40.0036 272.645 40.0036 272.797C40.0036 272.948 38.6472 274.811 36.99 276.935C35.3322 279.06 33.9759 281.047 33.9759 281.35C33.9754 281.653 33.7754 281.901 33.5318 281.901C33.2876 281.901 32.9511 282.249 32.7838 282.673C32.6171 283.097 32.0278 284.041 31.4752 284.768C30.9221 285.496 30.3213 286.39 30.139 286.753C29.9571 287.117 29.3327 288.011 28.752 288.738C28.1713 289.466 27.2756 290.856 26.7617 291.826C26.2478 292.797 25.6389 293.889 25.4088 294.252C23.1714 297.789 18.9049 305.875 18.9049 306.579C18.9049 306.835 18.6788 307.045 18.4025 307.045C18.1263 307.045 17.9002 307.244 17.9002 307.488C17.9002 307.732 17.3511 308.931 16.6795 310.153C16.0083 311.375 15.304 313.011 15.1146 313.79C14.9253 314.569 14.5962 315.404 14.3837 315.647C14.1713 315.889 13.8422 316.724 13.6529 317.502C13.4635 318.281 12.8536 319.744 12.2975 320.755C11.7414 321.766 11.1581 323.312 11.0014 324.192C10.8452 325.072 10.4117 326.184 10.0384 326.663C9.66567 327.141 9.36025 328.072 9.36025 328.731C9.36025 329.391 9.14725 330.046 8.88703 330.188C8.62681 330.329 8.26162 331.336 8.07525 332.425C7.88938 333.514 7.53723 334.514 7.29309 334.646C7.04844 334.779 6.8485 335.559 6.8485 336.379C6.8485 337.2 6.6355 337.987 6.37528 338.128C6.11506 338.269 5.74736 339.323 5.55847 340.47C5.36909 341.616 5.04705 342.753 4.8426 342.996C4.63764 343.238 4.31263 344.524 4.12023 345.852C3.92732 347.18 3.57971 348.471 3.34763 348.719C3.11554 348.968 2.80512 350.363 2.65843 351.818C2.51175 353.274 2.02295 356.549 1.57285 359.097C0.256189 366.548 -0.376791 383.179 0.234066 394.262C0.825332 404.981 1.57835 411.684 2.32987 412.917C2.60465 413.368 2.8297 414.941 2.8297 416.413C2.8297 417.884 3.04168 419.089 3.30139 419.089C3.56061 419.089 3.91126 420.032 4.08055 421.184C4.24984 422.336 4.60251 423.624 4.86474 424.045C5.12696 424.466 5.34295 425.26 5.34446 425.809C5.34647 426.359 5.68555 427.377 6.09798 428.071C6.51091 428.767 6.8485 429.821 6.8485 430.415C6.8485 431.553 8.0828 435.405 8.96945 437.035C9.25779 437.564 9.36731 438.286 9.21259 438.64C9.05837 438.994 9.33062 439.659 9.8179 440.118C10.3052 440.578 10.8582 441.799 11.0461 442.833C11.2345 443.866 11.5912 445.05 11.8394 445.465C12.8797 447.202 13.8814 449.485 13.8814 450.118C13.8814 450.491 14.0944 450.913 14.3546 451.054C14.6148 451.195 14.9801 452.199 15.1654 453.285C15.3508 454.371 15.7029 455.26 15.9481 455.26C16.1927 455.26 16.3931 455.497 16.3931 455.785C16.3931 456.074 17.1015 457.612 17.967 459.204C18.8326 460.795 19.7242 462.494 19.9488 462.98C21.3664 466.043 22.4856 468.035 22.9222 468.272C23.1995 468.423 23.426 468.81 23.426 469.134C23.426 469.619 25.1255 472.434 28.6967 477.865C28.9755 478.289 30.0586 480.033 31.1045 481.742C33.2164 485.194 36.9483 490.649 37.4311 490.991C37.8159 491.263 38.6839 492.484 39.9614 494.549C40.4969 495.415 41.2906 496.382 41.7251 496.698C42.1597 497.015 42.5153 497.531 42.5153 497.845C42.5153 498.159 42.6851 498.482 42.8921 498.563C43.0991 498.644 44.3977 500.172 45.7776 501.96C47.1576 503.748 48.7962 505.693 49.4196 506.284C50.0431 506.874 50.5529 507.457 50.5529 507.579C50.5529 507.795 55.7442 514.067 56.8002 515.126C57.4261 515.754 57.7637 516.129 60.0891 518.781C61.0465 519.873 61.9548 520.865 62.107 520.987C62.4446 521.255 68.6531 527.669 70.6469 529.809C72.5644 531.867 76.1813 535.54 77.4286 536.696C77.9812 537.208 80.4679 539.564 82.9545 541.932C93.6435 552.108 104.855 562.171 112.646 568.581C122.759 576.901 134.29 587.141 139.72 592.623C145.741 598.702 146.775 599.732 148.009 600.887C148.7 601.534 149.83 602.705 150.521 603.49C151.211 604.276 152.455 605.636 153.283 606.513C155.042 608.372 155.603 608.971 156.317 609.746C156.604 610.058 158.511 612.298 160.555 614.724C162.599 617.15 164.425 619.234 164.612 619.356C164.8 619.477 165.112 620.023 165.306 620.569C165.5 621.114 165.869 621.561 166.127 621.561C166.385 621.561 166.596 621.768 166.596 622.021C166.596 622.274 166.826 622.721 167.107 623.013C168.936 624.919 173.629 630.828 173.629 631.226C173.629 631.49 173.855 631.707 174.131 631.707C174.407 631.707 174.633 631.974 174.633 632.301C174.633 632.628 175.078 633.346 175.621 633.896C176.165 634.446 176.898 635.469 177.251 636.169C177.604 636.869 178.039 637.441 178.218 637.441C178.397 637.441 178.685 637.938 178.859 638.544C179.032 639.151 179.377 639.647 179.627 639.647C179.875 639.647 180.229 640.243 180.41 640.97C180.592 641.698 180.893 642.296 181.078 642.297C181.263 642.299 181.658 642.746 181.955 643.29C183.278 645.717 187.903 653.205 188.697 654.204C189.178 654.81 189.742 655.803 189.95 656.41C190.159 657.016 191.086 658.943 192.011 660.693C192.936 662.442 193.838 664.377 194.013 664.994C194.19 665.61 194.489 666.114 194.678 666.114C194.867 666.114 195.451 667.255 195.976 668.651C196.501 670.045 197.226 671.579 197.587 672.057C197.948 672.535 198.244 673.367 198.244 673.906C198.244 674.444 198.45 674.996 198.702 675.133C198.955 675.27 199.313 676.174 199.5 677.142C199.686 678.11 200.045 679.014 200.297 679.151C200.549 679.288 200.756 679.846 200.756 680.392C200.756 680.938 201.088 681.77 201.493 682.241C201.899 682.712 202.238 683.632 202.247 684.285C202.263 685.528 203.84 686.847 205.311 686.847C205.759 686.847 206.5 686.484 206.957 686.04C207.729 685.291 207.788 666.988 207.788 431.584C207.788 186.413 207.758 177.91 206.87 177.204C205.755 176.318 204.934 176.291 203.204 177.084ZM280.992 177.361C280.516 177.85 280.127 178.36 280.127 178.496C280.127 178.925 278.715 180.003 278.153 180.003C277.857 180.003 277.615 180.219 277.615 180.484C277.615 180.748 276.655 181.806 275.48 182.835C274.306 183.864 269.05 188.629 263.8 193.424C258.551 198.219 252.673 203.586 250.739 205.351C248.805 207.116 245.919 209.776 244.325 211.262L241.428 213.963L241.562 248.134C241.695 281.718 241.714 282.316 242.702 282.971C243.254 283.337 244.728 283.644 245.976 283.652C247.569 283.662 248.814 284.005 250.155 284.805C252.415 286.154 258.332 286.765 261.055 285.932C262.832 285.388 267.971 285.93 270.833 286.963C271.662 287.263 273.99 287.768 276.005 288.087C278.021 288.406 279.786 288.832 279.928 289.034C280.07 289.235 281.309 289.4 282.681 289.4C284.852 289.4 285.235 289.263 285.634 288.34C285.887 287.757 286.333 287.15 286.626 286.991C287.376 286.584 287.292 284.311 286.506 283.738C285.978 283.353 285.836 273.193 285.766 230.478C285.701 191.509 285.527 177.535 285.102 177.084C284.255 176.188 281.987 176.341 280.992 177.361ZM616.437 197.225C616.26 197.478 616.122 219.43 616.131 246.008L616.149 294.333L617.504 295.355C618.254 295.921 619.89 296.513 621.171 296.68C622.442 296.847 624.613 297.434 625.995 297.985C627.376 298.537 629.411 299.348 630.516 299.789C632.317 300.508 637.635 302.281 639.935 302.93C640.419 303.066 640.814 303.338 640.814 303.534C640.814 303.897 643.6 305.331 650.341 308.439C652.404 309.389 654.456 310.457 654.902 310.812C655.347 311.166 656.19 311.456 656.774 311.456C657.357 311.456 657.974 311.655 658.145 311.897C658.688 312.669 661.766 312.416 662.187 311.566C662.397 311.142 662.651 290.059 662.751 264.715C662.952 213.467 663.132 216.337 659.642 215.229C658.681 214.924 657.894 214.537 657.894 214.37C657.894 214.202 657.31 213.936 656.595 213.779C655.881 213.621 654.811 213.096 654.219 212.611C653.626 212.126 652.628 211.616 652.001 211.478C651.374 211.34 650.861 211.085 650.861 210.912C650.861 210.738 649.787 210.136 648.475 209.574C647.162 209.011 645.636 208.205 645.084 207.782C644.531 207.359 643.514 206.864 642.823 206.682C642.133 206.5 641.454 206.218 641.316 206.056C640.556 205.162 623.91 198.089 622.567 198.089C622.171 198.089 621.566 197.791 621.222 197.427C620.509 196.673 616.932 196.522 616.437 197.225ZM357.207 207.467C356.671 207.722 355.426 208.644 354.439 209.516C349.395 213.977 337.21 224.191 334.392 226.32C332.627 227.655 330.489 229.426 329.642 230.256C328.794 231.086 325.285 234.228 321.843 237.238L315.586 242.711L315.194 248.962C314.979 252.401 314.912 264.841 315.045 276.608C315.178 288.375 315.288 298.155 315.289 298.341C315.29 298.527 317.043 299.38 319.184 300.236C321.326 301.092 323.643 302.075 324.334 302.419C325.558 303.031 326.566 303.472 330.536 305.133C333.822 306.508 334.381 306.801 334.381 307.149C334.381 307.335 334.802 307.486 335.316 307.486C335.831 307.486 337.105 308.081 338.148 308.809C339.191 309.537 340.352 310.133 340.729 310.133C341.105 310.133 341.413 310.312 341.413 310.531C341.413 310.749 342.049 311.123 342.825 311.361C343.602 311.598 344.564 312.08 344.965 312.431C345.364 312.783 346.287 313.352 347.014 313.696C350.037 315.129 355.466 318.188 356.015 318.77C356.737 319.534 359.075 319.592 359.9 318.867C360.313 318.504 360.505 316.314 360.511 311.919C360.517 307.88 360.802 304.357 361.279 302.413C362.664 296.775 362.879 280.054 361.556 280.772C361.342 280.888 361.009 264.905 360.815 245.254C360.622 225.603 360.264 209.063 360.019 208.499C359.468 207.225 358.478 206.862 357.207 207.467ZM698.415 243.735C697.675 244.385 697.575 245.967 697.543 257.561C697.523 264.762 697.456 284.548 697.395 301.531C697.267 336.902 696.953 334.381 701.923 337.923C703.454 339.015 705.421 340.526 706.293 341.282C707.164 342.038 709.234 343.599 710.892 344.752C712.549 345.905 714.43 347.37 715.072 348.01C715.713 348.649 717.881 350.66 719.89 352.48C721.898 354.299 723.973 356.382 724.501 357.108C725.352 358.279 728.467 361.358 732.995 365.503C733.824 366.262 735.285 367.86 736.242 369.055C737.2 370.25 738.265 371.482 738.609 371.793C738.954 372.105 739.961 373.246 740.847 374.33C741.734 375.414 742.816 376.324 743.253 376.352C744.494 376.434 745.517 376.257 745.96 375.885C746.464 375.46 747.814 369.897 747.814 368.244C747.814 367.574 748.021 366.68 748.273 366.259C750.598 362.374 750.659 324.394 748.348 319.617C748.114 319.131 747.684 317.345 747.395 315.647C746.279 309.111 745.429 305.736 744.628 304.662C744.17 304.049 743.796 303.024 743.796 302.385C743.796 301.746 743.485 300.597 743.104 299.833C742.06 297.732 739.695 291.547 739.411 290.172C739.273 289.505 738.985 288.959 738.77 288.959C738.555 288.959 738.229 288.435 738.046 287.794C737.483 285.826 730.245 273.328 729.268 272.638C729.096 272.516 728.705 271.921 728.398 271.314C727.83 270.191 720.468 261.31 719.44 260.507C719.129 260.264 717.87 258.875 716.642 257.419C715.414 255.963 713.279 253.75 711.897 252.501C710.515 251.252 708.672 249.565 707.8 248.752C706.929 247.939 705.552 246.766 704.74 246.145C703.928 245.525 703.052 244.685 702.793 244.279C702.087 243.17 699.434 242.841 698.415 243.735ZM278.009 316.639C276.926 317.731 276.39 328.48 276.652 343.878C276.89 357.921 276.868 415.816 276.612 445.016L276.442 464.547L277.546 465.859C278.153 466.58 279.097 467.17 279.644 467.17C280.191 467.17 281.574 467.766 282.718 468.494C283.862 469.222 285.051 469.817 285.36 469.817C285.669 469.817 286.822 470.359 287.922 471.021C289.022 471.683 290.534 472.527 291.282 472.896C292.031 473.265 294.179 474.48 296.055 475.596C297.932 476.713 300.258 478.003 301.225 478.463C302.193 478.924 304.62 480.343 306.621 481.617C308.622 482.891 310.486 483.933 310.765 483.933C311.044 483.933 311.272 484.115 311.272 484.338C311.272 484.561 312.12 485.193 313.156 485.743C314.193 486.293 315.679 487.202 316.46 487.764C318.03 488.893 320.865 489.135 321.735 488.215C322.077 487.854 322.345 483.516 322.466 476.415C322.61 467.99 322.877 464.249 323.536 461.436C324.114 458.971 324.307 456.855 324.101 455.26C322.901 445.97 322.749 438.901 322.664 388.21C322.561 327.586 322.82 332.063 319.328 330.599C318.351 330.189 317.213 329.688 316.798 329.485C314.962 328.586 311.787 327.336 311.342 327.336C311.074 327.336 310.779 327.188 310.686 327.005C310.527 326.692 306.567 324.942 302.733 323.492C300.514 322.653 299.828 322.367 297.96 321.497C294.438 319.857 292.102 318.955 291.381 318.955C290.957 318.955 288.898 318.26 286.805 317.411C282.489 315.66 279.262 315.377 278.009 316.639ZM657.383 347.416C656.883 347.945 656.722 359.317 656.617 401.563C656.544 430.975 656.363 457.521 656.215 460.554C655.877 467.491 656.183 468.166 661.013 471.145C662.976 472.356 664.829 473.346 665.131 473.347C666.002 473.349 673.982 476.974 676.593 478.554C677.898 479.343 680.046 480.786 681.366 481.76C682.685 482.733 684.324 483.943 685.007 484.448C685.69 484.952 686.821 485.584 687.519 485.852C689.642 486.667 693.707 489.057 695.623 490.618C696.619 491.43 698.269 492.358 699.29 492.681C700.901 493.191 701.308 493.176 702.376 492.561L703.608 491.853V437.757V383.662L702.247 382.076C701.499 381.204 699.86 379.531 698.605 378.359C697.35 377.186 696.172 375.995 695.986 375.712C695.8 375.429 694.105 373.784 692.218 372.057C690.332 370.329 687.648 367.848 686.254 366.543C683.243 363.724 674.707 356.763 672.948 355.692C671.114 354.575 670.924 354.439 668.192 352.282C666.811 351.191 665.502 350.294 665.284 350.287C665.066 350.28 663.947 349.48 662.797 348.51C660.559 346.622 658.522 346.21 657.383 347.416Z" fill="#042862"/>
<path fill-rule="evenodd" clip-rule="evenodd" d="M545.792 170.144C545.335 170.256 544.792 170.882 544.586 171.536C544.379 172.19 544.163 196.545 544.103 225.659C544.045 254.772 543.966 278.753 543.929 278.95C543.891 279.146 543.654 279.194 543.402 279.057C543.149 278.92 542.644 279.402 542.278 280.127C541.912 280.853 541.271 281.571 540.853 281.724C540.147 281.983 535.916 282.354 526.027 283.026C523.817 283.176 521.104 283.567 519.999 283.895C518.894 284.222 516.916 284.578 515.604 284.685L513.217 284.88L513.213 235.419C513.211 208.216 513.065 184.908 512.889 183.624C512.484 180.66 511.73 180.25 507.815 180.861C506.227 181.108 502.668 181.607 499.905 181.969C493.304 182.834 487.847 184.055 479.851 186.457C477.939 187.032 475.763 187.502 475.015 187.502C474.267 187.502 473.373 187.8 473.029 188.164C472.685 188.528 471.769 188.825 470.994 188.825C469.717 188.825 468.052 189.756 467.976 190.511C467.959 190.676 467.85 194.78 467.733 199.633C467.616 204.485 467.259 209.302 466.941 210.338C466.564 211.566 466.484 213.715 466.71 216.514C466.901 218.875 467.147 231.923 467.257 245.509C467.367 259.095 467.58 275.41 467.732 281.765C467.914 289.447 467.834 293.412 467.49 293.598C467.207 293.752 467.037 294.377 467.114 294.987C467.23 295.919 466.93 296.204 465.243 296.767C457.621 299.308 455.508 300.169 451.158 302.5C450.179 303.025 447.14 304.462 440.879 307.362C439.083 308.194 436.992 309.393 436.232 310.027L434.851 311.18L434.737 309.223C434.675 308.146 434.619 299.424 434.612 289.841C434.58 244.034 434.298 208.408 433.964 207.963C432.924 206.577 431.527 206.934 427.282 209.669C424.93 211.185 422.648 212.624 422.209 212.866C421.771 213.109 419.091 214.895 416.253 216.836C413.415 218.777 409.907 221.159 408.457 222.13C404.187 224.988 397.743 229.907 393.03 233.906C390.613 235.958 388.635 237.532 388.635 237.404C388.635 237.276 388.402 237.376 388.118 237.626C387.495 238.173 388.057 243.175 388.702 242.826C389.375 242.46 389.215 245.484 388.53 246.086C388.068 246.491 387.917 253.071 387.902 273.414C387.88 302.186 388.006 769.329 388.046 806.389C388.059 818.742 388.304 830.532 388.595 832.856C388.883 835.161 389.123 841.433 389.128 846.793C389.136 855.721 389.215 856.602 390.069 857.28C391.86 858.704 393.493 857.004 394.888 852.265C395.605 849.829 396.181 848.257 397.557 844.987C398.725 842.212 399.266 841.068 399.748 840.355C399.994 839.991 400.324 839.396 400.481 839.032C401.353 837.011 406.053 829.057 406.537 828.782C406.852 828.602 407.251 827.961 407.424 827.355C407.597 826.75 408.979 824.655 410.494 822.701C412.01 820.747 413.25 819.051 413.25 818.932C413.25 818.498 421.068 809.169 423.945 806.169C437.98 791.535 455.078 778.016 478.746 762.835C483.753 759.623 488.146 756.775 488.508 756.505C489.15 756.029 492.465 754.086 500.156 749.682C502.228 748.496 504.15 747.367 504.426 747.174C505.44 746.466 508.511 744.665 510.957 743.343C515.034 741.14 515.403 740.932 517.077 739.892C517.957 739.346 518.846 738.898 519.054 738.898C519.262 738.898 519.899 738.532 520.469 738.084C521.039 737.636 524.219 735.812 527.534 734.03C532.787 731.207 535.806 729.539 543.861 725.013C544.828 724.469 546.692 723.451 548.004 722.749C551.219 721.03 558.639 716.33 558.847 715.88C558.94 715.681 559.236 715.519 559.505 715.519C561.268 715.519 574.528 705.256 577.166 701.851C578.014 700.756 578.865 699.76 579.057 699.639C579.249 699.518 580.317 697.731 581.43 695.669C585.415 688.286 585.053 714.29 585.053 435.1V185.212L584.036 183.957C583.476 183.267 582.515 182.567 581.901 182.403C581.286 182.238 579.54 181.615 578.021 181.018C576.501 180.42 574.805 179.76 574.253 179.55C573.7 179.34 572.187 178.761 570.89 178.263C569.593 177.764 568.292 177.356 568.001 177.356C567.71 177.356 567.471 177.158 567.471 176.915C567.471 176.673 567.148 176.474 566.753 176.474C566.154 176.474 561.209 174.681 558.429 173.456C558.014 173.274 556.319 172.737 554.661 172.265C553.003 171.792 551.534 171.285 551.396 171.138C551.258 170.991 550.58 170.758 549.889 170.62C549.198 170.482 548.181 170.273 547.628 170.155C547.076 170.037 546.249 170.032 545.792 170.144ZM547.88 173.386C547.88 173.629 547.653 173.827 547.377 173.827C547.101 173.827 546.875 173.629 546.875 173.386C546.875 173.144 547.101 172.945 547.377 172.945C547.653 172.945 547.88 173.144 547.88 173.386ZM203.531 177.006C202.986 177.284 201.743 177.664 200.768 177.851C197.562 178.466 193.018 179.467 189.955 180.233C188.298 180.648 186.037 181.148 184.932 181.344C183.827 181.541 181.142 182.213 178.965 182.838C176.789 183.462 174.724 183.973 174.376 183.973C174.028 183.973 173.096 184.27 172.305 184.632C171.514 184.994 170.397 185.292 169.823 185.294C169.25 185.295 168.293 185.752 167.698 186.308L166.616 187.32L166.48 239.525L166.345 291.729L164.186 292.288C162.999 292.596 161.27 293.164 160.343 293.55C159.416 293.937 158.31 294.252 157.884 294.252C157.459 294.252 156.989 294.425 156.84 294.637C156.692 294.848 155.9 295.138 155.082 295.282C153.315 295.592 148.347 297.613 144.493 299.589C140.223 301.777 135.311 303.957 134.649 303.957C134.32 303.957 133.921 303.659 133.761 303.295C133.603 302.931 133.038 302.634 132.507 302.634C131.917 302.634 131.439 302.247 131.28 301.641C131.002 300.583 131.191 202.584 131.472 201.838C131.563 201.596 131.247 200.752 130.768 199.964C129.788 198.347 128.636 198.153 126.853 199.302C126.194 199.726 124.75 200.46 123.645 200.931C121.019 202.051 110.774 207.54 107.58 209.537C100.967 213.673 88.2179 222.295 86.848 223.559L85.7177 224.601V278.505V332.409L82.1093 335.276C74.4756 341.342 65.3871 349.68 61.9776 353.744C60.8302 355.111 59.373 356.723 58.739 357.328C58.105 357.932 57.5861 358.563 57.5861 358.73C57.5861 358.897 57.3038 359.301 56.9582 359.627C55.5616 360.948 53.2403 363.824 52.3134 365.382C51.7724 366.292 51.155 367.037 50.9415 367.037C50.728 367.037 50.5532 344.348 50.5532 316.617C50.5532 277.99 50.4121 266.073 49.9504 265.668C48.5674 264.454 45.0273 265.604 45.0273 267.269C45.0273 267.553 44.8164 267.785 44.5587 267.785C44.301 267.785 43.9548 268.16 43.7891 268.619C43.6238 269.076 42.9079 270.001 42.1991 270.672C40.7368 272.058 34.801 279.643 34.3228 280.738C34.1495 281.134 33.1629 282.6 32.13 283.995C31.0972 285.391 29.8749 287.128 29.4138 287.856C28.9531 288.584 28.0977 289.874 27.5124 290.723C26.9277 291.573 26.3173 292.565 26.1571 292.929C25.9963 293.293 25.6542 293.936 25.3975 294.359C23.9578 296.725 21.8288 300.512 20.7443 302.634C20.0621 303.968 18.6062 306.756 17.5091 308.829C16.4115 310.902 15.3516 313.248 15.1526 314.042C14.9542 314.836 14.4754 316.018 14.0886 316.669C13.7018 317.32 13.3843 318.16 13.3823 318.536C13.3808 318.912 13.1824 319.408 12.9418 319.639C12.7007 319.869 12.1169 321.249 11.6442 322.704C11.1715 324.16 10.4642 326.003 10.0723 326.8C9.68101 327.596 9.36051 328.627 9.36051 329.09C9.36051 329.552 9.15555 330.042 8.90538 330.178C8.65471 330.314 8.29453 331.417 8.10464 332.63C7.91475 333.842 7.55457 334.945 7.3039 335.081C7.05373 335.217 6.84876 335.889 6.84876 336.575C6.84876 337.261 6.51118 338.39 6.09824 339.086C5.68581 339.78 5.34673 340.983 5.34472 341.757C5.34321 342.531 5.14778 343.269 4.91117 343.398C4.67457 343.526 4.35008 344.743 4.19033 346.101C4.03059 347.459 3.68845 348.805 3.43025 349.092C3.17204 349.378 2.81639 350.903 2.63956 352.48C2.46324 354.057 1.97243 357.332 1.54895 359.758C-0.758846 372.986 -0.304695 404.124 2.31707 412.411C2.59587 413.293 2.82545 414.936 2.82696 416.061C2.82847 417.185 3.16755 418.674 3.58049 419.369C3.99291 420.064 4.332 421.28 4.33401 422.072C4.33552 422.864 4.53143 423.856 4.76854 424.278C5.61349 425.778 6.84876 429.591 6.84876 430.701C6.84876 431.321 7.07482 431.951 7.35111 432.101C7.62741 432.251 7.85496 432.908 7.85647 433.561C7.85848 434.214 8.19756 435.317 8.60999 436.011C9.02292 436.707 9.36051 437.824 9.36051 438.494C9.36051 439.165 9.6996 439.96 10.114 440.262C10.5285 440.564 10.8676 441.234 10.8676 441.751C10.8676 442.268 11.7412 444.703 12.8086 447.163C13.8766 449.623 14.9094 452.203 15.1044 452.897C15.2993 453.59 16.3146 455.745 17.3605 457.686C19.2619 461.214 20.915 464.501 22.1292 467.17C22.295 467.534 22.8411 468.427 23.344 469.155C23.8463 469.883 25.281 472.166 26.5318 474.228C27.7832 476.29 29.2561 478.672 29.8051 479.521C30.3537 480.371 31.6025 482.356 32.5791 483.933C34.162 486.487 38.0854 491.933 41.0005 495.622C44.7264 500.337 48.0962 504.522 48.5342 504.977C48.8155 505.27 49.0461 505.717 49.0461 505.97C49.0461 506.223 49.2577 506.43 49.5164 506.43C49.7751 506.43 50.4949 507.224 51.1158 508.194C51.7372 509.165 52.4295 509.959 52.655 509.959C52.8806 509.959 53.0649 510.162 53.0649 510.41C53.0649 510.819 55.3225 513.385 63.1461 521.869C64.5999 523.446 65.9221 524.835 66.0834 524.957C66.2451 525.078 67.5025 526.368 68.8779 527.824C70.2529 529.279 71.4962 530.57 71.6409 530.691C71.785 530.812 73.0334 532.095 74.4148 533.542C75.7963 534.988 77.4917 536.69 78.1824 537.322C78.8732 537.955 82.1415 541.04 85.4449 544.176C91.3701 549.802 102.55 559.691 124.158 578.416C133.458 586.476 141.079 593.463 142.59 595.315C142.788 595.557 144.17 596.947 145.662 598.402C150.219 602.849 153.628 606.526 158.746 612.518C161.44 615.672 163.913 618.566 164.241 618.949C164.57 619.333 165.064 619.961 165.34 620.347C167.147 622.867 169.867 626.216 170.209 626.34C170.432 626.421 170.615 626.752 170.615 627.075C170.615 627.398 170.798 627.729 171.021 627.81C171.632 628.031 174.446 631.786 174.85 632.92C175.045 633.466 175.378 633.912 175.592 633.912C175.805 633.912 176.411 634.704 176.939 635.672C177.467 636.639 178.069 637.433 178.276 637.436C178.483 637.439 178.652 637.725 178.652 638.072C178.652 638.418 178.935 638.964 179.28 639.285C179.626 639.605 180.429 640.761 181.065 641.852C181.701 642.944 182.692 644.532 183.268 645.381C183.845 646.231 185.321 648.592 186.549 650.629C187.778 652.666 188.979 654.651 189.219 655.04C189.459 655.429 190.04 656.542 190.509 657.512C190.978 658.483 192.024 660.567 192.832 662.144C194.892 666.163 195.538 667.463 196.228 668.981C196.559 669.709 197.148 670.867 197.537 671.553C197.926 672.24 198.244 673.16 198.244 673.598C198.244 674.036 198.582 674.963 198.995 675.658C199.407 676.353 199.746 677.257 199.748 677.667C199.75 678.077 199.977 678.536 200.253 678.686C200.53 678.836 200.763 679.493 200.772 680.145C200.78 680.798 201.119 681.718 201.525 682.189C201.931 682.66 202.263 683.517 202.263 684.095C202.263 686.216 205.113 687.431 206.74 686.003L207.752 685.115L207.645 431.42C207.539 180.856 207.525 177.719 206.562 177.1C205.398 176.353 204.848 176.336 203.531 177.006ZM281.219 177.718C280.48 178.402 276.259 182.318 271.838 186.419C267.418 190.52 260.943 196.461 257.45 199.621C253.958 202.781 250.379 206.062 249.499 206.911C248.619 207.76 246.504 209.716 244.798 211.257L241.697 214.058V247.93V281.802L242.953 282.719C243.982 283.471 244.913 283.639 248.102 283.651C251.557 283.664 251.995 283.758 251.995 284.486C251.995 285.142 252.499 285.359 254.502 285.568C255.881 285.711 257.688 285.621 258.519 285.366C260.309 284.818 263.577 285.052 268.071 286.049C273.815 287.324 278.241 288.062 278.688 287.82C278.927 287.69 279.124 287.744 279.126 287.94C279.132 288.441 281.619 289.4 282.912 289.4C283.505 289.4 284.364 289.037 284.821 288.593C285.586 287.852 285.653 283.376 285.653 233.218C285.653 183.728 285.578 178.547 284.842 177.561C283.788 176.149 282.87 176.189 281.219 177.718ZM282.861 180.996C282.412 182.279 282.315 182.358 281.635 181.989C281.237 181.773 281.326 181.428 281.93 180.842C283.059 179.746 283.286 179.783 282.861 180.996ZM509.565 183.798C509.398 183.945 508.964 183.961 508.602 183.833C508.201 183.693 508.32 183.588 508.906 183.567C509.435 183.548 509.732 183.652 509.565 183.798ZM582.425 197.317L582.308 209.337L582.165 197.758C582.057 188.944 581.874 186.177 581.403 186.172C581.001 186.168 581.048 186.015 581.537 185.738C581.951 185.502 582.347 185.307 582.416 185.303C582.485 185.3 582.489 190.706 582.425 197.317ZM470.358 192.878C470.198 193.23 470.079 193.125 470.055 192.611C470.033 192.147 470.152 191.886 470.319 192.033C470.485 192.179 470.504 192.56 470.358 192.878ZM282.509 201.048C282.413 202.696 282.332 201.463 282.332 198.309C282.331 195.155 282.41 193.807 282.508 195.313C282.606 196.82 282.606 199.4 282.509 201.048ZM616.746 197.38C616.313 197.838 616.171 210.316 616.19 246.169L616.216 294.344L617.338 295.16C617.955 295.609 619.703 296.201 621.223 296.476C622.742 296.751 625.158 297.455 626.592 298.04C628.025 298.626 629.495 299.111 629.857 299.119C630.22 299.126 630.955 299.424 631.491 299.78C632.028 300.136 632.799 300.428 633.207 300.428C634.106 300.428 640.046 302.998 643.828 305.025C646.809 306.621 654.979 310.486 658.515 311.972C659.807 312.514 661.213 312.417 661.852 311.741C662.261 311.308 662.42 298.338 662.431 264.485C662.444 224.75 662.34 217.687 661.729 216.89C661.334 216.375 659.688 215.359 658.071 214.631C656.454 213.903 655.018 213.188 654.88 213.043C654.742 212.897 653.273 212.123 651.615 211.322C649.957 210.522 648.488 209.748 648.349 209.602C648.211 209.456 647.363 208.99 646.465 208.565C645.567 208.141 644.099 207.446 643.201 207.021C642.303 206.597 641.455 206.138 641.317 206.002C640.633 205.331 623.201 198.089 622.268 198.089C621.676 198.089 621.061 197.791 620.902 197.427C620.532 196.581 617.533 196.548 616.746 197.38ZM355.035 209.448C352.154 211.947 342.935 219.72 332.409 228.526C321.227 237.879 316.088 242.535 315.719 243.645C315.539 244.185 315.369 256.661 315.342 271.371C315.303 292.272 315.429 298.214 315.919 298.57C316.265 298.821 317.565 299.372 318.808 299.795C320.051 300.218 321.425 300.832 321.862 301.158C322.298 301.484 323.101 301.751 323.645 301.751C324.19 301.751 324.85 301.935 325.112 302.159C325.375 302.383 327.698 303.525 330.275 304.695C337.621 308.034 337.829 308.132 338.768 308.698C341.853 310.56 343.448 311.403 344.376 311.662C344.957 311.824 345.433 312.119 345.433 312.317C345.433 312.516 346.167 313.008 347.065 313.41C347.963 313.813 349.376 314.524 350.205 314.991C351.034 315.458 352.39 316.171 353.219 316.577C354.048 316.982 355.266 317.782 355.925 318.355C357.331 319.576 358.6 319.685 359.563 318.666C360.566 317.604 360.538 209.113 359.533 208.051C358.484 206.94 357.613 207.211 355.035 209.448ZM582.416 230.814C582.332 234.772 582.264 231.658 582.263 223.894C582.263 216.131 582.331 212.892 582.415 216.698C582.498 220.504 582.498 226.856 582.416 230.814ZM282.509 224.887C282.412 226.524 282.333 225.184 282.333 221.909C282.333 218.634 282.412 217.294 282.509 218.932C282.606 220.569 282.606 223.249 282.509 224.887ZM282.48 229.491C282.319 229.843 282.2 229.738 282.176 229.224C282.155 228.759 282.273 228.499 282.44 228.645C282.607 228.792 282.625 229.173 282.48 229.491ZM282.496 240.767C282.381 241.434 282.287 240.888 282.287 239.554C282.287 238.219 282.381 237.673 282.496 238.341C282.611 239.008 282.611 240.099 282.496 240.767ZM388.967 241.87C388.828 242.173 388.714 241.925 388.714 241.318C388.714 240.712 388.828 240.464 388.967 240.767C389.107 241.07 389.107 241.567 388.967 241.87ZM582.382 242.283C582.222 242.635 582.103 242.53 582.079 242.017C582.057 241.552 582.176 241.291 582.343 241.438C582.51 241.584 582.528 241.965 582.382 242.283ZM282.469 244.075C282.33 244.379 282.216 244.13 282.216 243.524C282.216 242.917 282.33 242.669 282.469 242.972C282.609 243.276 282.609 243.772 282.469 244.075ZM698.81 243.707C697.853 244.321 697.828 245.301 697.715 288.372C697.635 318.902 697.765 332.856 698.14 333.868C698.482 334.789 699.835 336.172 701.811 337.618C709.443 343.204 712.738 345.822 717.712 350.253C720.635 352.855 723.686 355.761 724.494 356.71C726.207 358.722 726.204 358.718 729.479 361.827C730.86 363.138 732.706 364.995 733.581 365.955C739.436 372.376 740.666 373.731 741.793 374.997C742.89 376.231 743.259 376.377 744.617 376.115C746.036 375.841 746.237 375.583 746.811 373.3C747.158 371.917 747.631 369.694 747.863 368.36C748.095 367.026 748.648 363.85 749.092 361.302C750.104 355.495 750.673 333.024 749.89 329.762C749.599 328.549 749.121 325.869 748.828 323.807C747.704 315.894 747.086 312.912 745.762 308.998C745.509 308.253 745.303 307.15 745.303 306.546C745.303 305.943 744.971 305.064 744.566 304.593C744.16 304.122 743.819 303.339 743.807 302.854C743.788 302.037 740.86 294.146 740.206 293.15C740.046 292.907 739.764 292.113 739.578 291.385C739.217 289.969 739.184 289.904 735.251 282.614C732.992 278.426 726.122 267.964 725.224 267.344C725.049 267.223 724.39 266.379 723.76 265.469C723.13 264.56 722.423 263.815 722.188 263.815C721.953 263.815 721.633 263.464 721.478 263.034C721.322 262.604 720.572 261.637 719.811 260.884C719.05 260.131 718.088 259.137 717.674 258.674C714.446 255.075 712.463 253.129 707.513 248.698C704.398 245.909 701.386 243.504 700.819 243.353C700.243 243.2 699.356 243.356 698.81 243.707ZM282.509 264.569C282.413 266.217 282.332 264.984 282.332 261.83C282.331 258.676 282.41 257.328 282.508 258.834C282.606 260.341 282.606 262.921 282.509 264.569ZM582.385 266.793C582.259 267.217 582.156 266.87 582.156 266.021C582.156 265.172 582.259 264.825 582.385 265.249C582.512 265.673 582.512 266.368 582.385 266.793ZM582.411 276.718C582.313 278.234 582.233 276.994 582.233 273.961C582.233 270.928 582.313 269.688 582.411 271.204C582.509 272.721 582.509 275.202 582.411 276.718ZM282.799 283.335C283.053 287.183 283.05 287.194 281.842 287.194C281.175 287.194 280.629 287.044 280.629 286.861C280.629 286.677 279.555 286.588 278.243 286.664C276.478 286.766 276.053 286.682 276.611 286.343C277.025 286.091 278.3 285.882 279.445 285.878C281.914 285.87 282.136 285.533 282.136 281.792C282.136 277.96 282.498 278.804 282.799 283.335ZM248.892 281.05C250.95 281.072 251.464 281.186 250.74 281.46C249.327 281.993 244.46 281.993 244.46 281.46C244.46 281.217 244.686 281.019 244.963 281.019C245.239 281.019 245.491 280.671 245.523 280.247C245.578 279.512 245.592 279.512 245.811 280.247C245.994 280.863 246.617 281.025 248.892 281.05ZM582.414 293.921C582.325 296.409 582.251 294.374 582.251 289.4C582.251 284.426 582.325 282.392 582.414 284.879C582.504 287.366 582.504 291.434 582.414 293.921ZM274.485 284.863C273.73 284.964 272.373 284.965 271.471 284.868C270.568 284.769 271.185 284.687 272.843 284.685C274.501 284.682 275.24 284.762 274.485 284.863ZM320.471 297.914C321.377 298.069 321.327 298.113 320.189 298.162C319.056 298.212 318.819 298.044 318.866 297.23C318.907 296.527 318.99 296.454 319.148 296.982C319.271 297.392 319.867 297.811 320.471 297.914ZM582.385 300.759C582.259 301.183 582.156 300.836 582.156 299.987C582.156 299.138 582.259 298.791 582.385 299.215C582.512 299.639 582.512 300.334 582.385 300.759ZM323.957 299.397C323.612 299.519 323.047 299.519 322.701 299.397C322.356 299.274 322.638 299.174 323.329 299.174C324.02 299.174 324.303 299.274 323.957 299.397ZM337.028 305.129C336.688 305.249 336.009 305.257 335.521 305.145C335.032 305.033 335.31 304.934 336.139 304.925C336.968 304.916 337.368 305.008 337.028 305.129ZM582.416 343.988C582.338 351.206 582.275 345.301 582.275 330.865C582.275 316.429 582.338 310.524 582.416 317.742C582.493 324.959 582.493 336.771 582.416 343.988ZM343.423 308.636C343.423 308.731 343.084 308.809 342.67 308.809C342.255 308.809 341.916 308.617 341.916 308.382C341.916 308.147 342.255 308.069 342.67 308.208C343.084 308.348 343.423 308.541 343.423 308.636ZM347.442 310.306C347.442 310.725 345.938 310.935 345.67 310.554C345.507 310.322 345.839 310.133 346.408 310.133C346.976 310.133 347.442 310.211 347.442 310.306ZM351.059 312.867C350.59 313.279 350.322 313.279 349.853 312.867C349.385 312.456 349.518 312.338 350.456 312.338C351.394 312.338 351.528 312.456 351.059 312.867ZM356.987 316.114C356.987 316.492 356.757 316.677 356.476 316.524C356.195 316.372 356.095 316.062 356.255 315.837C356.685 315.225 356.987 315.339 356.987 316.114ZM278.248 316.86C277.975 317.163 277.604 318.268 277.421 319.315C276.995 321.767 276.965 464.112 277.39 465.086C277.744 465.897 283.296 468.494 284.675 468.494C285.154 468.494 285.676 468.791 285.835 469.155C285.994 469.519 286.431 469.817 286.805 469.817C287.181 469.817 288.018 470.313 288.667 470.92C289.316 471.526 290.18 472.022 290.586 472.022C290.993 472.022 292.276 472.706 293.437 473.541C294.597 474.376 296.994 475.813 298.763 476.734C303.7 479.306 306.446 480.938 311.432 484.263C312.979 485.295 314.393 486.138 314.576 486.138C314.759 486.138 315.68 486.734 316.624 487.462C318.531 488.932 320.34 489.16 321.379 488.061C321.951 487.455 322.065 474.753 322.069 410.755C322.071 368.635 321.9 333.631 321.689 332.967C321.359 331.933 320.04 331.222 312.395 327.957C293.849 320.037 291.206 318.955 290.408 318.955C289.958 318.955 288.044 318.359 286.155 317.632C282.567 316.249 279.1 315.91 278.248 316.86ZM282.032 319.819C281.609 320.415 281.305 320.524 281.056 320.171C280.593 319.513 280.989 318.955 281.919 318.955C282.517 318.955 282.537 319.11 282.032 319.819ZM287.024 320.545C286.857 320.691 286.423 320.707 286.061 320.58C285.66 320.439 285.779 320.334 286.365 320.313C286.894 320.294 287.191 320.398 287.024 320.545ZM657.5 347.297C656.881 347.955 656.451 467.518 657.064 468.386C657.279 468.692 658.176 469.265 659.056 469.661C659.937 470.057 660.77 470.512 660.908 470.672C661.7 471.588 664.608 472.966 665.376 472.789C665.905 472.668 666.518 472.922 666.862 473.405C667.184 473.858 668.01 474.228 668.699 474.228C669.387 474.228 669.951 474.433 669.951 474.683C669.951 474.933 670.346 475.264 670.83 475.419C672.815 476.053 679.985 480.341 683.386 482.928C685.388 484.451 687.275 485.697 687.58 485.697C688.448 485.697 694.067 488.861 694.775 489.748C695.547 490.716 699.799 492.755 701.045 492.755C701.54 492.755 702.319 492.392 702.777 491.948C703.541 491.207 703.608 486.811 703.608 437.735V384.329L701.87 382.061C700.914 380.814 699.249 378.957 698.17 377.936C697.091 376.915 694.771 374.69 693.013 372.992C685.705 365.928 671.768 354.275 670.574 354.23C670.369 354.223 669.41 353.512 668.443 352.65C667.476 351.789 666.12 350.82 665.429 350.497C664.739 350.173 663.394 349.197 662.442 348.327C660.637 346.678 658.498 346.232 657.5 347.297ZM582.416 453.606C582.34 462.158 582.277 455.161 582.277 438.056C582.277 420.952 582.34 413.955 582.416 422.507C582.492 431.059 582.492 445.053 582.416 453.606ZM582.394 472.574C582.274 473.12 582.176 472.673 582.176 471.581C582.176 470.49 582.274 470.043 582.394 470.589C582.514 471.134 582.514 472.028 582.394 472.574ZM315.658 483.758C315.491 483.904 315.057 483.92 314.695 483.793C314.294 483.652 314.413 483.548 314.999 483.526C315.528 483.507 315.825 483.611 315.658 483.758ZM582.382 484.898C582.222 485.249 582.103 485.145 582.079 484.631C582.057 484.166 582.176 483.906 582.343 484.052C582.51 484.199 582.528 484.579 582.382 484.898ZM582.394 491.978C582.274 492.526 582.171 492.182 582.166 491.211C582.16 490.241 582.259 489.792 582.384 490.213C582.51 490.635 582.515 491.429 582.394 491.978ZM582.372 495.071C582.233 495.374 582.119 495.126 582.119 494.519C582.119 493.913 582.233 493.665 582.372 493.968C582.512 494.272 582.512 494.768 582.372 495.071ZM582.413 506.319C582.319 508.2 582.241 506.661 582.241 502.901C582.241 499.14 582.319 497.602 582.413 499.482C582.507 501.362 582.507 504.439 582.413 506.319ZM582.372 516.244C582.233 516.548 582.119 516.3 582.119 515.693C582.119 515.087 582.233 514.839 582.372 515.142C582.512 515.445 582.512 515.941 582.372 516.244ZM582.413 533.911C582.32 535.901 582.244 534.154 582.245 530.029C582.245 525.905 582.322 524.277 582.414 526.412C582.506 528.547 582.505 531.921 582.413 533.911ZM582.394 563.444C582.274 563.99 582.176 563.543 582.176 562.451C582.176 561.36 582.274 560.913 582.394 561.459C582.514 562.005 582.514 562.898 582.394 563.444ZM582.407 578.872C582.301 579.909 582.213 579.17 582.212 577.229C582.21 575.288 582.297 574.439 582.405 575.343C582.513 576.246 582.514 577.834 582.407 578.872ZM582.41 599.159C582.309 600.441 582.224 599.505 582.223 597.079C582.222 594.653 582.304 593.604 582.408 594.748C582.511 595.893 582.512 597.878 582.41 599.159ZM582.394 615.049C582.274 615.598 582.171 615.253 582.166 614.283C582.16 613.312 582.259 612.863 582.384 613.285C582.51 613.707 582.515 614.501 582.394 615.049ZM582.404 683.42C582.292 684.213 582.198 683.67 582.195 682.215C582.192 680.759 582.283 680.11 582.399 680.773C582.513 681.436 582.515 682.627 582.404 683.42Z" fill="#3A6EA5"/>
<path fill-rule="evenodd" clip-rule="evenodd" d="M545.792 170.144C545.334 170.256 544.791 170.882 544.585 171.536C544.379 172.19 544.162 196.545 544.103 225.659C544.044 254.772 543.965 278.753 543.928 278.95C543.891 279.146 543.654 279.194 543.401 279.057C543.149 278.92 542.643 279.402 542.278 280.127C541.912 280.853 541.271 281.571 540.853 281.724C540.147 281.983 535.915 282.354 526.027 283.026C523.817 283.176 521.104 283.567 519.999 283.895C518.894 284.222 516.916 284.578 515.603 284.685L513.217 284.88L513.212 235.419C513.21 208.216 513.065 184.908 512.889 183.624C512.484 180.66 511.73 180.25 507.814 180.861C506.227 181.108 502.668 181.607 499.905 181.969C493.303 182.834 487.846 184.055 479.851 186.457C477.938 187.032 475.762 187.502 475.014 187.502C474.266 187.502 473.373 187.8 473.029 188.164C472.685 188.528 471.769 188.825 470.994 188.825C469.717 188.825 468.051 189.756 467.975 190.511C467.959 190.676 467.85 194.78 467.732 199.633C467.615 204.485 467.259 209.302 466.941 210.338C466.564 211.566 466.483 213.715 466.71 216.514C466.9 218.875 467.147 231.923 467.257 245.509C467.367 259.095 467.58 275.41 467.731 281.765C467.914 289.447 467.833 293.412 467.49 293.598C467.207 293.752 467.037 294.377 467.113 294.987C467.23 295.919 466.93 296.204 465.243 296.767C457.62 299.308 455.508 300.169 451.158 302.5C450.179 303.025 447.14 304.462 440.879 307.362C439.083 308.194 436.992 309.393 436.232 310.027L434.85 311.18L434.737 309.223C434.675 308.146 434.618 299.424 434.611 289.841C434.579 244.034 434.297 208.408 433.964 207.963C432.923 206.577 431.527 206.934 427.282 209.669C424.93 211.185 422.647 212.624 422.209 212.866C421.771 213.109 419.09 214.895 416.252 216.836C413.415 218.777 409.906 221.159 408.457 222.13C404.187 224.988 397.742 229.907 393.03 233.906C390.613 235.958 388.634 237.532 388.634 237.404C388.634 237.276 388.402 237.376 388.117 237.626C387.494 238.173 388.057 243.175 388.702 242.826C389.375 242.46 389.215 245.484 388.529 246.086C388.068 246.491 387.917 253.071 387.901 273.414C387.879 302.186 388.006 769.329 388.046 806.389C388.059 818.742 388.304 830.532 388.595 832.856C388.883 835.161 389.123 841.433 389.128 846.793C389.136 855.721 389.215 856.602 390.068 857.28C391.86 858.704 393.493 857.004 394.888 852.265C395.604 849.829 396.181 848.257 397.557 844.987C398.724 842.212 399.265 841.068 399.747 840.355C399.993 839.991 400.323 839.396 400.48 839.032C401.353 837.011 406.052 829.057 406.537 828.782C406.851 828.602 407.251 827.961 407.424 827.355C407.597 826.75 408.978 824.655 410.494 822.701C412.01 820.747 413.249 819.051 413.249 818.932C413.249 818.498 421.067 809.169 423.945 806.169C437.98 791.535 455.078 778.016 478.745 762.835C483.752 759.623 488.145 756.775 488.508 756.505C489.149 756.029 492.465 754.086 500.156 749.682C502.228 748.496 504.15 747.367 504.426 747.174C505.44 746.466 508.511 744.665 510.956 743.343C515.034 741.14 515.403 740.932 517.077 739.892C517.956 739.346 518.846 738.898 519.054 738.898C519.262 738.898 519.898 738.532 520.469 738.084C521.039 737.636 524.218 735.812 527.534 734.03C532.787 731.207 535.806 729.539 543.86 725.013C544.827 724.469 546.692 723.451 548.004 722.749C551.219 721.03 558.638 716.33 558.847 715.88C558.939 715.681 559.235 715.519 559.505 715.519C561.267 715.519 574.528 705.256 577.165 701.851C578.013 700.756 578.865 699.76 579.056 699.639C579.248 699.518 580.316 697.731 581.43 695.669C585.415 688.286 585.053 714.29 585.053 435.1V185.212L584.035 183.957C583.476 183.267 582.515 182.567 581.9 182.403C581.286 182.238 579.54 181.615 578.02 181.018C576.501 180.42 574.805 179.76 574.253 179.55C573.7 179.34 572.186 178.761 570.889 178.263C569.592 177.764 568.292 177.356 568.001 177.356C567.709 177.356 567.471 177.158 567.471 176.915C567.471 176.673 567.147 176.474 566.752 176.474C566.153 176.474 561.209 174.681 558.429 173.456C558.014 173.274 556.319 172.737 554.661 172.265C553.003 171.792 551.534 171.285 551.396 171.138C551.257 170.991 550.579 170.758 549.889 170.62C549.198 170.482 548.181 170.273 547.628 170.155C547.075 170.037 546.249 170.032 545.792 170.144ZM547.879 173.386C547.879 173.629 547.653 173.827 547.377 173.827C547.101 173.827 546.874 173.629 546.874 173.386C546.874 173.144 547.101 172.945 547.377 172.945C547.653 172.945 547.879 173.144 547.879 173.386ZM203.531 177.006C202.986 177.284 201.743 177.664 200.768 177.851C197.562 178.466 193.018 179.467 189.955 180.233C188.297 180.648 186.037 181.148 184.931 181.344C183.826 181.541 181.141 182.213 178.965 182.838C176.788 183.462 174.723 183.973 174.376 183.973C174.028 183.973 173.096 184.27 172.304 184.632C171.513 184.994 170.396 185.292 169.823 185.294C169.25 185.295 168.293 185.752 167.698 186.308L166.615 187.32L166.48 239.525L166.345 291.729L164.186 292.288C162.999 292.596 161.269 293.164 160.342 293.55C159.416 293.937 158.309 294.252 157.884 294.252C157.458 294.252 156.989 294.425 156.84 294.637C156.691 294.848 155.9 295.138 155.082 295.282C153.315 295.592 148.346 297.613 144.492 299.589C140.223 301.777 135.311 303.957 134.649 303.957C134.32 303.957 133.92 303.659 133.761 303.295C133.602 302.931 133.013 302.634 132.451 302.634C131.89 302.634 131.428 302.386 131.423 302.082C131.357 297.672 130.91 262.686 130.759 250.141C130.65 241.043 130.714 235.286 130.902 237.348C131.145 240.008 131.247 238.277 131.256 231.393C131.263 225.644 131.122 222.678 130.911 224.115C130.689 225.634 130.635 224.727 130.77 221.689C130.888 219.02 131.058 213.859 131.148 210.22C131.239 206.58 131.383 203.107 131.469 202.5C131.68 201.004 130.126 198.53 128.974 198.53C128.466 198.53 127.511 198.878 126.852 199.302C126.193 199.726 124.75 200.46 123.645 200.931C121.018 202.051 110.774 207.54 107.58 209.537C100.966 213.673 88.2176 222.295 86.8476 223.559L85.7174 224.601V278.505V332.409L82.109 335.276C74.4753 341.342 65.3867 349.68 61.9773 353.744C60.8299 355.111 59.3727 356.723 58.7387 357.328C58.1047 357.932 57.5858 358.563 57.5858 358.73C57.5858 358.897 57.3035 359.301 56.9578 359.627C55.5613 360.948 53.24 363.824 52.3131 365.382C51.2567 367.159 50.5554 367.509 50.5488 366.265C50.5463 365.84 50.5484 343.184 50.5529 315.917C50.5589 279.68 50.4087 266.179 49.9933 265.74C48.7449 264.419 45.027 265.563 45.027 267.269C45.027 267.553 44.816 267.785 44.5583 267.785C44.3006 267.785 43.9545 268.16 43.7888 268.619C43.6235 269.076 42.9076 270.001 42.1988 270.672C40.7365 272.058 34.8007 279.643 34.3225 280.738C34.1492 281.134 33.1626 282.6 32.1297 283.995C31.0969 285.391 29.8746 287.128 29.4135 287.856C28.9528 288.584 28.0974 289.874 27.5121 290.723C26.9274 291.573 26.317 292.565 26.1568 292.929C25.996 293.293 25.6539 293.936 25.3972 294.359C23.9574 296.725 21.8285 300.512 20.7439 302.634C20.0618 303.968 18.6059 306.756 17.5088 308.829C16.4111 310.902 15.3512 313.248 15.1523 314.042C14.9539 314.836 14.4751 316.018 14.0883 316.669C13.7015 317.32 13.384 318.16 13.382 318.536C13.3805 318.912 13.1821 319.408 12.9415 319.639C12.7003 319.869 12.1166 321.249 11.6439 322.704C11.1712 324.16 10.4638 326.003 10.072 326.8C9.68069 327.596 9.36019 328.627 9.36019 329.09C9.36019 329.552 9.15523 330.042 8.90506 330.178C8.65439 330.314 8.2942 331.417 8.10432 332.63C7.91443 333.842 7.55425 334.945 7.30357 335.081C7.0534 335.217 6.84844 335.889 6.84844 336.575C6.84844 337.261 6.51085 338.39 6.09792 339.086C5.68549 339.78 5.34641 340.983 5.3444 341.757C5.34289 342.531 5.14746 343.269 4.91085 343.398C4.67424 343.526 4.34976 344.743 4.19001 346.101C4.03026 347.459 3.68813 348.805 3.42992 349.092C3.17172 349.378 2.81607 350.903 2.63924 352.48C2.46291 354.057 1.97211 357.332 1.54863 359.758C-0.75113 372.941 -0.314534 403.746 2.29467 412.391C2.56443 413.285 2.83919 415.008 2.9055 416.221C2.97131 417.434 3.31942 418.923 3.67809 419.53C4.03677 420.136 4.33168 421.28 4.33369 422.072C4.3352 422.864 4.53111 423.856 4.76822 424.278C5.61317 425.778 6.84844 429.591 6.84844 430.701C6.84844 431.321 7.04385 431.935 7.28297 432.065C7.52209 432.194 7.84407 433.128 7.99829 434.139C8.15301 435.15 8.51225 436.105 8.79658 436.259C9.08091 436.413 9.37124 437.288 9.44156 438.202C9.51139 439.117 9.86104 440.078 10.2182 440.338C10.5749 440.598 10.8672 441.234 10.8672 441.751C10.8672 442.268 11.7408 444.703 12.8083 447.163C13.8763 449.623 14.9091 452.203 15.104 452.897C15.2989 453.59 16.3142 455.745 17.3601 457.686C19.2615 461.214 20.9147 464.501 22.1289 467.17C22.2947 467.534 22.8408 468.427 23.3436 469.155C23.846 469.883 25.2807 472.166 26.5315 474.228C27.7829 476.29 29.2558 478.672 29.8048 479.521C30.3534 480.371 31.6022 482.356 32.5788 483.933C34.1617 486.487 38.0851 491.933 41.0002 495.622C44.7261 500.337 48.0959 504.522 48.5339 504.977C48.8152 505.27 49.0458 505.717 49.0458 505.97C49.0458 506.223 49.2573 506.43 49.516 506.43C49.7748 506.43 50.4946 507.224 51.1155 508.194C51.7369 509.165 52.4291 509.959 52.6547 509.959C52.8802 509.959 53.0646 510.162 53.0646 510.41C53.0646 510.819 55.3222 513.385 63.1458 521.869C64.5996 523.446 65.9218 524.835 66.083 524.957C66.2448 525.078 67.5022 526.368 68.8776 527.824C70.2525 529.279 71.4958 530.57 71.6405 530.691C71.7847 530.812 73.033 532.095 74.4145 533.542C75.7959 534.988 77.4914 536.69 78.1821 537.322C78.8728 537.955 82.1411 541.04 85.4446 544.176C91.3698 549.802 102.55 559.691 124.157 578.416C133.458 586.476 141.079 593.463 142.589 595.315C142.787 595.557 144.17 596.947 145.662 598.402C150.219 602.849 153.628 606.526 158.746 612.518C161.44 615.672 163.913 618.566 164.241 618.949C164.569 619.333 165.064 619.961 165.34 620.347C167.146 622.867 169.867 626.216 170.209 626.34C170.432 626.421 170.614 626.752 170.614 627.075C170.614 627.398 170.797 627.729 171.02 627.81C171.632 628.031 174.445 631.786 174.849 632.92C175.044 633.466 175.378 633.912 175.591 633.912C175.804 633.912 176.411 634.704 176.939 635.672C177.467 636.639 178.068 637.433 178.275 637.436C178.482 637.439 178.652 637.725 178.652 638.072C178.652 638.418 178.935 638.964 179.28 639.285C179.626 639.605 180.428 640.761 181.064 641.852C181.7 642.944 182.692 644.532 183.268 645.381C183.844 646.231 185.321 648.592 186.549 650.629C187.777 652.666 188.978 654.651 189.219 655.04C189.459 655.429 190.039 656.542 190.509 657.512C190.978 658.483 192.024 660.567 192.832 662.144C194.892 666.163 195.538 667.463 196.228 668.981C196.559 669.709 197.148 670.867 197.537 671.553C197.926 672.24 198.244 673.16 198.244 673.598C198.244 674.036 198.581 674.963 198.994 675.658C199.407 676.353 199.746 677.268 199.748 677.693C199.749 678.118 199.977 678.465 200.253 678.465C200.529 678.465 200.755 679.068 200.755 679.804C200.755 680.541 201.089 681.589 201.495 682.135C201.903 682.681 202.307 683.517 202.395 683.994C202.835 686.396 205.099 687.443 206.739 686.003L207.751 685.115L207.644 431.42C207.539 180.856 207.525 177.719 206.562 177.1C205.398 176.353 204.848 176.336 203.531 177.006ZM281.218 177.718C280.48 178.402 276.259 182.318 271.838 186.419C267.417 190.52 260.942 196.461 257.45 199.621C253.957 202.781 250.379 206.062 249.499 206.911C248.619 207.76 246.503 209.716 244.798 211.257L241.697 214.058V247.93V281.802L242.953 282.719C243.982 283.471 244.913 283.639 248.102 283.651C251.557 283.664 251.995 283.758 251.995 284.486C251.995 285.142 252.499 285.359 254.501 285.568C255.88 285.711 257.688 285.621 258.519 285.366C260.309 284.818 263.577 285.052 268.07 286.049C273.815 287.324 278.24 288.062 278.687 287.82C278.927 287.69 279.124 287.744 279.126 287.94C279.132 288.441 281.619 289.4 282.912 289.4C283.504 289.4 284.364 289.037 284.821 288.593C285.585 287.852 285.653 283.376 285.653 233.218C285.653 183.728 285.577 178.547 284.841 177.561C283.787 176.149 282.87 176.189 281.218 177.718ZM282.861 180.996C282.412 182.279 282.314 182.358 281.634 181.989C281.237 181.773 281.326 181.428 281.93 180.842C283.059 179.746 283.285 179.783 282.861 180.996ZM509.564 183.798C509.398 183.945 508.964 183.961 508.602 183.833C508.201 183.693 508.32 183.588 508.905 183.567C509.435 183.548 509.731 183.652 509.564 183.798ZM582.424 197.317L582.308 209.337L582.165 197.758C582.057 188.944 581.874 186.177 581.402 186.172C581.001 186.168 581.048 186.015 581.537 185.738C581.951 185.502 582.347 185.307 582.416 185.303C582.485 185.3 582.489 190.706 582.424 197.317ZM470.358 192.878C470.198 193.23 470.079 193.125 470.055 192.611C470.033 192.147 470.152 191.886 470.318 192.033C470.485 192.179 470.503 192.56 470.358 192.878ZM282.509 201.048C282.412 202.696 282.332 201.463 282.332 198.309C282.331 195.155 282.41 193.807 282.507 195.313C282.605 196.82 282.606 199.4 282.509 201.048ZM616.745 197.38C616.313 197.838 616.171 210.316 616.19 246.169L616.216 294.344L617.338 295.16C617.954 295.609 619.703 296.201 621.222 296.476C622.742 296.751 625.158 297.455 626.591 298.04C628.025 298.626 629.494 299.111 629.857 299.119C630.219 299.126 630.955 299.424 631.491 299.78C632.027 300.136 632.799 300.428 633.206 300.428C634.106 300.428 640.046 302.998 643.828 305.025C646.808 306.621 654.978 310.486 658.515 311.972C659.806 312.514 661.213 312.417 661.851 311.741C662.261 311.308 662.42 298.338 662.431 264.485C662.444 224.75 662.34 217.687 661.728 216.89C661.333 216.375 659.687 215.359 658.071 214.631C656.454 213.903 655.018 213.188 654.88 213.043C654.742 212.897 653.272 212.123 651.614 211.322C649.957 210.522 648.487 209.748 648.349 209.602C648.21 209.456 647.363 208.99 646.465 208.565C645.567 208.141 644.098 207.446 643.201 207.021C642.303 206.597 641.455 206.138 641.317 206.002C640.633 205.331 623.201 198.089 622.268 198.089C621.675 198.089 621.061 197.791 620.902 197.427C620.532 196.581 617.532 196.548 616.745 197.38ZM355.035 209.448C352.154 211.947 342.935 219.72 332.408 228.526C321.227 237.879 316.087 242.535 315.718 243.645C315.538 244.185 315.369 256.661 315.341 271.371C315.302 292.272 315.428 298.214 315.919 298.57C316.265 298.821 317.564 299.372 318.808 299.795C320.051 300.218 321.425 300.832 321.861 301.158C322.297 301.484 323.1 301.751 323.645 301.751C324.189 301.751 324.849 301.935 325.112 302.159C325.374 302.383 327.698 303.525 330.274 304.695C337.621 308.034 337.829 308.132 338.768 308.698C341.852 310.56 343.447 311.403 344.376 311.662C344.957 311.824 345.432 312.119 345.432 312.317C345.432 312.516 346.167 313.008 347.065 313.41C347.963 313.813 349.376 314.524 350.205 314.991C351.033 315.458 352.39 316.171 353.219 316.577C354.047 316.982 355.265 317.782 355.924 318.355C357.33 319.576 358.6 319.685 359.562 318.666C360.566 317.604 360.537 209.113 359.533 208.051C358.483 206.94 357.613 207.211 355.035 209.448ZM582.415 230.814C582.332 234.772 582.264 231.658 582.263 223.894C582.263 216.131 582.331 212.892 582.415 216.698C582.498 220.504 582.498 226.856 582.415 230.814ZM282.509 224.887C282.412 226.524 282.333 225.184 282.333 221.909C282.333 218.634 282.412 217.294 282.509 218.932C282.605 220.569 282.605 223.249 282.509 224.887ZM282.479 229.491C282.319 229.843 282.2 229.738 282.176 229.224C282.154 228.759 282.273 228.499 282.44 228.645C282.606 228.792 282.624 229.173 282.479 229.491ZM282.496 240.767C282.381 241.434 282.287 240.888 282.287 239.554C282.287 238.219 282.381 237.673 282.496 238.341C282.611 239.008 282.611 240.099 282.496 240.767ZM388.967 241.87C388.828 242.173 388.714 241.925 388.714 241.318C388.714 240.712 388.828 240.464 388.967 240.767C389.106 241.07 389.106 241.567 388.967 241.87ZM582.382 242.283C582.222 242.635 582.103 242.53 582.079 242.017C582.057 241.552 582.176 241.291 582.342 241.438C582.509 241.584 582.527 241.965 582.382 242.283ZM282.469 244.075C282.33 244.379 282.215 244.13 282.215 243.524C282.215 242.917 282.33 242.669 282.469 242.972C282.608 243.276 282.608 243.772 282.469 244.075ZM698.809 243.707C697.852 244.321 697.828 245.306 697.698 287.931C697.625 311.908 697.696 332.193 697.856 333.007C698.185 334.678 699.603 336.004 706.645 341.22C712.084 345.25 722.245 354.06 724.463 356.67C726.208 358.724 726.195 358.711 729.479 361.827C730.86 363.138 732.706 364.995 733.58 365.955C739.435 372.376 740.666 373.731 741.793 374.997C742.89 376.231 743.259 376.377 744.617 376.115C746.036 375.841 746.237 375.583 746.81 373.3C747.157 371.917 747.631 369.694 747.863 368.36C748.095 367.026 748.648 363.85 749.092 361.302C750.104 355.495 750.672 333.024 749.89 329.762C749.598 328.549 749.121 325.869 748.828 323.807C747.703 315.894 747.086 312.912 745.761 308.998C745.509 308.253 745.303 307.15 745.303 306.546C745.303 305.943 744.971 305.064 744.565 304.593C744.159 304.122 743.818 303.339 743.807 302.854C743.788 302.037 740.859 294.146 740.205 293.15C740.046 292.907 739.764 292.113 739.578 291.385C739.216 289.969 739.184 289.904 735.251 282.614C732.992 278.426 726.121 267.964 725.224 267.344C725.048 267.223 724.389 266.379 723.76 265.469C723.13 264.56 722.423 263.815 722.188 263.815C721.952 263.815 721.633 263.464 721.478 263.034C721.322 262.604 720.572 261.637 719.811 260.884C719.05 260.131 718.088 259.137 717.673 258.674C714.445 255.075 712.463 253.129 707.513 248.698C704.398 245.909 701.385 243.504 700.819 243.353C700.242 243.2 699.356 243.356 698.809 243.707ZM282.509 264.569C282.412 266.217 282.332 264.984 282.332 261.83C282.331 258.676 282.41 257.328 282.507 258.834C282.605 260.341 282.606 262.921 282.509 264.569ZM582.385 266.793C582.259 267.217 582.155 266.87 582.155 266.021C582.155 265.172 582.259 264.825 582.385 265.249C582.512 265.673 582.512 266.368 582.385 266.793ZM582.411 276.718C582.313 278.234 582.232 276.994 582.232 273.961C582.232 270.928 582.313 269.688 582.411 271.204C582.509 272.721 582.509 275.202 582.411 276.718ZM282.798 283.335C283.053 287.183 283.05 287.194 281.841 287.194C281.175 287.194 280.629 287.044 280.629 286.861C280.629 286.677 279.555 286.588 278.243 286.664C276.478 286.766 276.053 286.682 276.61 286.343C277.025 286.091 278.3 285.882 279.445 285.878C281.914 285.87 282.136 285.533 282.136 281.792C282.136 277.96 282.498 278.804 282.798 283.335ZM248.892 281.05C250.95 281.072 251.464 281.186 250.739 281.46C249.327 281.993 244.46 281.993 244.46 281.46C244.46 281.217 244.686 281.019 244.962 281.019C245.239 281.019 245.491 280.671 245.523 280.247C245.578 279.512 245.592 279.512 245.811 280.247C245.994 280.863 246.617 281.025 248.892 281.05ZM582.414 293.921C582.324 296.409 582.251 294.374 582.251 289.4C582.251 284.426 582.324 282.392 582.414 284.879C582.503 287.366 582.503 291.434 582.414 293.921ZM274.484 284.863C273.729 284.964 272.373 284.965 271.47 284.868C270.567 284.769 271.185 284.687 272.843 284.685C274.5 284.682 275.239 284.762 274.484 284.863ZM130.793 289.28C130.684 290.195 130.594 289.554 130.591 287.856C130.589 286.158 130.678 285.409 130.789 286.192C130.9 286.975 130.902 288.365 130.793 289.28ZM130.77 293.453C130.609 293.805 130.49 293.7 130.466 293.186C130.445 292.721 130.563 292.461 130.73 292.607C130.897 292.754 130.915 293.135 130.77 293.453ZM320.471 297.914C321.376 298.069 321.326 298.113 320.189 298.162C319.056 298.212 318.818 298.044 318.866 297.23C318.907 296.527 318.99 296.454 319.148 296.982C319.271 297.392 319.867 297.811 320.471 297.914ZM582.385 300.759C582.259 301.183 582.155 300.836 582.155 299.987C582.155 299.138 582.259 298.791 582.385 299.215C582.512 299.639 582.512 300.334 582.385 300.759ZM323.957 299.397C323.612 299.519 323.046 299.519 322.701 299.397C322.356 299.274 322.638 299.174 323.329 299.174C324.02 299.174 324.302 299.274 323.957 299.397ZM131.934 304.009C131.934 304.252 131.707 304.327 131.431 304.177C131.155 304.027 130.929 303.706 130.929 303.464C130.929 303.221 131.155 303.145 131.431 303.295C131.707 303.445 131.934 303.766 131.934 304.009ZM337.027 305.129C336.687 305.249 336.009 305.257 335.52 305.145C335.032 305.033 335.31 304.934 336.139 304.925C336.968 304.916 337.367 305.008 337.027 305.129ZM582.415 343.988C582.338 351.206 582.275 345.301 582.275 330.865C582.275 316.429 582.338 310.524 582.415 317.742C582.493 324.959 582.493 336.771 582.415 343.988ZM343.423 308.636C343.423 308.731 343.084 308.809 342.669 308.809C342.255 308.809 341.916 308.617 341.916 308.382C341.916 308.147 342.255 308.069 342.669 308.208C343.084 308.348 343.423 308.541 343.423 308.636ZM347.442 310.306C347.442 310.725 345.938 310.935 345.67 310.554C345.507 310.322 345.839 310.133 346.407 310.133C346.976 310.133 347.442 310.211 347.442 310.306ZM351.058 312.867C350.59 313.279 350.322 313.279 349.853 312.867C349.384 312.456 349.518 312.338 350.456 312.338C351.394 312.338 351.527 312.456 351.058 312.867ZM356.986 316.114C356.986 316.492 356.757 316.677 356.476 316.524C356.195 316.372 356.095 316.062 356.254 315.837C356.685 315.225 356.986 315.339 356.986 316.114ZM278.247 316.86C277.975 317.163 277.603 318.268 277.421 319.315C276.995 321.767 276.964 464.112 277.39 465.086C277.744 465.897 283.296 468.494 284.674 468.494C285.153 468.494 285.675 468.791 285.834 469.155C285.993 469.519 286.43 469.817 286.805 469.817C287.18 469.817 288.018 470.313 288.667 470.92C289.316 471.526 290.179 472.022 290.586 472.022C290.993 472.022 292.276 472.706 293.436 473.541C294.597 474.376 296.994 475.813 298.763 476.734C303.699 479.306 306.445 480.938 311.432 484.263C312.978 485.295 314.393 486.138 314.575 486.138C314.758 486.138 315.68 486.734 316.624 487.462C318.531 488.932 320.34 489.16 321.379 488.061C321.951 487.455 322.064 474.753 322.068 410.755C322.071 368.635 321.9 333.631 321.689 332.967C321.359 331.933 320.04 331.222 312.395 327.957C293.848 320.037 291.206 318.955 290.408 318.955C289.957 318.955 288.043 318.359 286.155 317.632C282.567 316.249 279.1 315.91 278.247 316.86ZM282.032 319.819C281.609 320.415 281.305 320.524 281.056 320.171C280.593 319.513 280.989 318.955 281.919 318.955C282.516 318.955 282.536 319.11 282.032 319.819ZM287.023 320.545C286.857 320.691 286.423 320.707 286.061 320.58C285.66 320.439 285.779 320.334 286.364 320.313C286.894 320.294 287.19 320.398 287.023 320.545ZM657.499 347.297C656.881 347.955 656.451 467.518 657.064 468.386C657.279 468.692 658.176 469.265 659.056 469.661C659.936 470.057 660.77 470.512 660.908 470.672C661.7 471.588 664.607 472.966 665.375 472.789C665.905 472.668 666.518 472.922 666.862 473.405C667.184 473.858 668.01 474.228 668.698 474.228C669.387 474.228 669.95 474.433 669.95 474.683C669.95 474.933 670.346 475.264 670.829 475.419C672.815 476.053 679.985 480.341 683.386 482.928C685.387 484.451 687.275 485.697 687.58 485.697C688.448 485.697 694.066 488.861 694.774 489.748C695.546 490.716 699.798 492.755 701.045 492.755C701.54 492.755 702.375 492.324 702.902 491.797C703.428 491.27 703.576 490.984 703.231 491.161C702.836 491.364 702.603 491.219 702.603 490.77C702.603 490.377 702.792 490.159 703.023 490.284C703.253 490.409 703.494 466.639 703.556 437.461L703.669 384.409L701.9 382.101C700.928 380.832 699.249 378.957 698.17 377.936C697.091 376.915 694.77 374.69 693.013 372.992C685.705 365.928 671.768 354.275 670.574 354.23C670.369 354.223 669.41 353.512 668.443 352.65C667.476 351.789 666.12 350.82 665.429 350.497C664.738 350.173 663.394 349.197 662.442 348.327C660.637 346.678 658.498 346.232 657.499 347.297ZM582.416 453.606C582.339 462.158 582.277 455.161 582.277 438.056C582.277 420.952 582.339 413.955 582.416 422.507C582.492 431.059 582.492 445.053 582.416 453.606ZM582.394 472.574C582.274 473.12 582.176 472.673 582.176 471.581C582.176 470.49 582.274 470.043 582.394 470.589C582.513 471.134 582.513 472.028 582.394 472.574ZM315.657 483.758C315.491 483.904 315.057 483.92 314.695 483.793C314.294 483.652 314.413 483.548 314.998 483.526C315.528 483.507 315.824 483.611 315.657 483.758ZM582.382 484.898C582.222 485.249 582.103 485.145 582.079 484.631C582.057 484.166 582.176 483.906 582.342 484.052C582.509 484.199 582.527 484.579 582.382 484.898ZM582.394 491.978C582.274 492.526 582.171 492.182 582.166 491.211C582.16 490.241 582.258 489.792 582.384 490.213C582.51 490.635 582.514 491.429 582.394 491.978ZM582.372 495.071C582.232 495.374 582.118 495.126 582.118 494.519C582.118 493.913 582.232 493.665 582.372 493.968C582.511 494.272 582.511 494.768 582.372 495.071ZM582.412 506.319C582.318 508.2 582.241 506.661 582.241 502.901C582.241 499.14 582.318 497.602 582.412 499.482C582.507 501.362 582.507 504.439 582.412 506.319ZM582.372 516.244C582.232 516.548 582.118 516.3 582.118 515.693C582.118 515.087 582.232 514.839 582.372 515.142C582.511 515.445 582.511 515.941 582.372 516.244ZM582.412 533.911C582.319 535.901 582.244 534.154 582.244 530.029C582.245 525.905 582.321 524.277 582.413 526.412C582.506 528.547 582.505 531.921 582.412 533.911ZM582.394 563.444C582.274 563.99 582.176 563.543 582.176 562.451C582.176 561.36 582.274 560.913 582.394 561.459C582.513 562.005 582.513 562.898 582.394 563.444ZM582.407 578.872C582.301 579.909 582.213 579.17 582.211 577.229C582.209 575.288 582.296 574.439 582.404 575.343C582.512 576.246 582.514 577.834 582.407 578.872ZM582.41 599.159C582.308 600.441 582.224 599.505 582.222 597.079C582.221 594.653 582.304 593.604 582.408 594.748C582.511 595.893 582.512 597.878 582.41 599.159ZM582.394 615.049C582.274 615.598 582.171 615.253 582.166 614.283C582.16 613.312 582.258 612.863 582.384 613.285C582.51 613.707 582.514 614.501 582.394 615.049ZM582.403 683.42C582.291 684.213 582.197 683.67 582.195 682.215C582.192 680.759 582.283 680.11 582.398 680.773C582.513 681.436 582.515 682.627 582.403 683.42ZM204.589 685.392C204.439 685.524 203.91 685.494 203.414 685.325C202.567 685.037 202.573 684.98 203.518 684.366C204.415 683.785 204.542 683.792 204.693 684.433C204.787 684.828 204.74 685.259 204.589 685.392Z" fill="#3A6EA5"/>
<path fill-rule="evenodd" clip-rule="evenodd" d="M545.792 170.144C545.334 170.256 544.795 170.882 544.593 171.536C544.392 172.19 544.269 196.513 544.32 225.587L544.414 278.45L543.258 279.472C542.622 280.034 541.82 280.802 541.476 281.178C541.131 281.553 540.114 281.952 539.215 282.064C535.864 282.483 526.412 283.224 524.432 283.224C523.304 283.224 521.62 283.498 520.688 283.833C519.756 284.168 517.694 284.532 516.105 284.641L513.217 284.841L513.212 235.399C513.21 208.207 513.065 184.908 512.889 183.624C512.487 180.686 511.676 180.218 508.044 180.831C506.606 181.075 503.509 181.505 501.16 181.789C495.874 182.428 490.724 183.527 482.497 185.769C479 186.722 475.709 187.502 475.183 187.502C474.656 187.502 473.787 187.794 473.25 188.15C472.714 188.506 471.67 188.804 470.93 188.811C469.707 188.824 468.065 189.765 467.965 190.511C467.943 190.676 467.835 195.759 467.724 201.807C467.584 209.398 467.344 212.9 466.948 213.115C466.566 213.323 466.502 213.995 466.758 215.131C466.969 216.069 467.199 227.059 467.27 239.554C467.341 252.048 467.534 269.336 467.699 277.97C467.864 286.605 467.831 293.819 467.626 294.001C467.42 294.183 467.252 294.735 467.252 295.228C467.252 295.929 466.487 296.383 463.735 297.32C459.433 298.784 453.696 301.189 449.67 303.217C444.007 306.069 441.13 307.451 439.12 308.287C438.015 308.746 436.685 309.543 436.164 310.058C435.644 310.573 435.023 310.888 434.783 310.758C434.542 310.627 434.348 287.918 434.348 259.79C434.348 225.664 434.178 208.779 433.828 208.205C432.551 206.111 430.858 207.037 408.779 221.909C403.868 225.218 397.655 229.966 393.281 233.755L389.136 237.345L389.121 241.427C389.112 243.672 388.907 246.898 388.664 248.597C388.059 252.823 388.05 260.986 388.325 565.76C388.486 744.318 388.737 834.986 389.074 836.147C389.377 837.192 389.459 840.623 389.279 844.68C389.05 849.824 389.127 851.546 389.597 851.802C389.938 851.987 390.343 852.961 390.496 853.966C390.842 856.231 391.853 856.365 392.032 854.17C392.188 852.26 392.53 851.825 393.175 852.719C393.518 853.196 393.658 852.959 393.7 851.824C393.753 850.419 393.792 850.38 394.141 851.383C394.567 852.609 394.506 852.699 396.093 848.497C396.647 847.032 397.371 845.245 397.702 844.527C398.033 843.81 398.471 842.826 398.675 842.34C399.432 840.543 405.981 829.087 406.557 828.553C406.886 828.248 407.306 827.581 407.491 827.069C407.676 826.558 409.047 824.566 410.538 822.643C412.029 820.721 413.249 819.051 413.249 818.932C413.249 818.498 421.067 809.169 423.945 806.169C437.98 791.536 455.077 778.016 478.745 762.835C483.752 759.623 488.145 756.776 488.508 756.506C489.149 756.029 492.465 754.086 500.156 749.682C502.228 748.496 504.149 747.367 504.426 747.174C505.439 746.466 508.51 744.665 510.956 743.343C515.034 741.14 515.403 740.932 517.076 739.892C517.956 739.346 518.846 738.898 519.054 738.898C519.262 738.898 519.898 738.532 520.469 738.084C521.039 737.636 524.218 735.812 527.534 734.03C532.787 731.207 535.806 729.54 543.86 725.013C544.827 724.469 546.691 723.451 548.004 722.749C551.219 721.03 558.638 716.33 558.847 715.88C558.939 715.681 559.235 715.519 559.504 715.519C561.267 715.519 574.528 705.256 577.165 701.851C578.013 700.756 578.864 699.76 579.056 699.639C579.248 699.518 580.316 697.731 581.429 695.669C585.415 688.286 585.053 714.29 585.053 435.1V185.212L584.035 183.957C583.476 183.267 582.515 182.567 581.9 182.403C581.286 182.238 579.54 181.615 578.02 181.018C576.5 180.42 574.805 179.763 574.252 179.556C570.535 178.166 569.432 177.747 566.968 176.786C565.449 176.194 563.075 175.279 561.694 174.753C560.312 174.227 558.843 173.645 558.428 173.46C558.014 173.276 556.318 172.737 554.661 172.265C553.003 171.792 551.534 171.285 551.395 171.138C551.257 170.991 550.579 170.758 549.888 170.62C549.198 170.482 548.18 170.273 547.628 170.155C547.075 170.037 546.249 170.032 545.792 170.144ZM552.264 172.77C552.097 172.917 551.664 172.933 551.301 172.805C550.901 172.665 551.02 172.56 551.605 172.539C552.134 172.52 552.431 172.624 552.264 172.77ZM547.879 173.386C547.879 173.629 547.653 173.827 547.377 173.827C547.1 173.827 546.874 173.629 546.874 173.386C546.874 173.144 547.1 172.945 547.377 172.945C547.653 172.945 547.879 173.144 547.879 173.386ZM281.218 177.73C280.48 178.422 278.421 180.357 276.643 182.031C273.466 185.023 268.747 189.355 254.824 202.059C250.968 205.577 246.437 209.716 244.755 211.257L241.697 214.058V247.93V281.802L242.953 282.719C243.981 283.471 244.912 283.639 248.102 283.651C251.557 283.664 251.995 283.758 251.995 284.486C251.995 285.142 252.499 285.359 254.501 285.568C255.88 285.711 257.688 285.621 258.518 285.366C260.309 284.818 263.577 285.052 268.07 286.049C273.815 287.324 278.24 288.062 278.687 287.82C278.926 287.69 279.124 287.744 279.126 287.94C279.131 288.441 281.618 289.4 282.912 289.4C283.504 289.4 284.364 289.037 284.821 288.593C285.585 287.852 285.652 283.376 285.652 233.218C285.652 183.728 285.577 178.547 284.841 177.561C283.785 176.146 282.866 176.189 281.218 177.73ZM567.571 178.327C567.102 178.738 566.834 178.738 566.365 178.327C565.897 177.915 566.03 177.797 566.968 177.797C567.906 177.797 568.04 177.915 567.571 178.327ZM282.861 180.996C282.412 182.279 282.314 182.358 281.634 181.989C281.237 181.773 281.326 181.428 281.93 180.842C283.059 179.746 283.285 179.783 282.861 180.996ZM510.067 181.593C509.9 181.739 509.466 181.755 509.104 181.628C508.703 181.487 508.822 181.382 509.408 181.361C509.937 181.342 510.233 181.446 510.067 181.593ZM575.874 181.593C575.708 181.739 575.274 181.755 574.912 181.628C574.511 181.487 574.63 181.382 575.215 181.361C575.745 181.342 576.041 181.446 575.874 181.593ZM509.564 183.798C509.397 183.945 508.964 183.961 508.602 183.833C508.201 183.693 508.32 183.588 508.905 183.567C509.435 183.548 509.731 183.652 509.564 183.798ZM582.424 197.317L582.307 209.337L582.165 197.758C582.056 188.944 581.874 186.177 581.402 186.172C581 186.168 581.048 186.015 581.536 185.738C581.951 185.502 582.347 185.307 582.416 185.303C582.484 185.3 582.488 190.706 582.424 197.317ZM470.358 192.878C470.198 193.23 470.079 193.125 470.054 192.611C470.033 192.147 470.151 191.886 470.318 192.033C470.485 192.179 470.503 192.56 470.358 192.878ZM282.509 201.048C282.412 202.696 282.332 201.463 282.331 198.309C282.33 195.155 282.41 193.807 282.507 195.313C282.605 196.82 282.606 199.4 282.509 201.048ZM618.71 200.71C618.71 201.775 618.99 201.882 619.388 200.97C619.544 200.614 619.455 200.205 619.191 200.062C618.926 199.919 618.71 200.21 618.71 200.71ZM355.081 209.448C351.414 212.576 341.041 221.305 332.408 228.526C321.227 237.879 316.087 242.535 315.718 243.645C315.538 244.185 315.369 256.661 315.341 271.371C315.302 292.272 315.428 298.214 315.919 298.57C316.265 298.821 317.564 299.372 318.807 299.795C320.051 300.218 321.425 300.832 321.861 301.158C322.297 301.484 323.1 301.751 323.645 301.751C324.189 301.751 324.849 301.935 325.112 302.159C325.374 302.383 327.698 303.525 330.274 304.695C337.62 308.034 337.829 308.132 338.768 308.699C341.852 310.56 343.447 311.403 344.376 311.662C344.957 311.824 345.432 312.119 345.432 312.317C345.432 312.516 346.167 313.008 347.065 313.411C347.962 313.813 349.375 314.524 350.204 314.992C351.033 315.459 352.559 316.249 353.595 316.746C354.632 317.243 355.479 317.82 355.479 318.028C355.479 318.236 356.172 318.659 357.019 318.967C358.346 319.45 358.676 319.424 359.405 318.784C360.19 318.095 360.249 314.052 360.222 263.304C360.194 210.224 360.164 208.549 359.247 207.96C357.898 207.093 357.798 207.129 355.081 209.448ZM357.991 209.558C357.991 209.801 357.765 209.999 357.488 209.999C357.212 209.999 356.986 209.801 356.986 209.558C356.986 209.315 357.212 209.117 357.488 209.117C357.765 209.117 357.991 209.315 357.991 209.558ZM431.198 209.383C431.031 209.53 430.597 209.546 430.235 209.418C429.834 209.277 429.953 209.173 430.539 209.152C431.068 209.133 431.364 209.237 431.198 209.383ZM582.415 230.814C582.332 234.772 582.263 231.658 582.263 223.894C582.263 216.131 582.331 212.892 582.415 216.698C582.498 220.504 582.498 226.856 582.415 230.814ZM282.509 224.887C282.412 226.524 282.333 225.184 282.333 221.909C282.333 218.634 282.412 217.294 282.509 218.932C282.605 220.569 282.605 223.249 282.509 224.887ZM282.479 229.491C282.319 229.843 282.2 229.738 282.176 229.224C282.154 228.759 282.273 228.499 282.439 228.645C282.606 228.792 282.624 229.173 282.479 229.491ZM282.496 240.767C282.381 241.434 282.287 240.888 282.287 239.554C282.287 238.219 282.381 237.673 282.496 238.341C282.611 239.008 282.611 240.1 282.496 240.767ZM388.171 238.929C388.196 239.443 388.315 239.547 388.475 239.196C388.62 238.877 388.602 238.496 388.435 238.35C388.268 238.204 388.15 238.464 388.171 238.929ZM582.382 242.283C582.222 242.635 582.103 242.531 582.078 242.017C582.057 241.552 582.175 241.291 582.342 241.438C582.509 241.584 582.527 241.965 582.382 242.283ZM618.847 243.965C618.847 245.057 618.945 245.503 619.065 244.958C619.185 244.412 619.185 243.518 619.065 242.973C618.945 242.427 618.847 242.873 618.847 243.965ZM282.468 244.075C282.329 244.379 282.215 244.13 282.215 243.524C282.215 242.917 282.329 242.669 282.468 242.973C282.608 243.276 282.608 243.772 282.468 244.075ZM282.509 264.569C282.412 266.217 282.332 264.984 282.331 261.83C282.33 258.676 282.41 257.328 282.507 258.834C282.605 260.341 282.606 262.921 282.509 264.569ZM582.385 266.793C582.259 267.217 582.155 266.87 582.155 266.021C582.155 265.172 582.259 264.825 582.385 265.249C582.511 265.673 582.511 266.368 582.385 266.793ZM582.41 276.718C582.313 278.235 582.232 276.994 582.232 273.961C582.232 270.928 582.313 269.688 582.41 271.204C582.509 272.721 582.509 275.202 582.41 276.718ZM282.798 283.335C283.053 287.183 283.05 287.194 281.841 287.194C281.174 287.194 280.629 287.044 280.629 286.861C280.629 286.677 279.555 286.588 278.243 286.664C276.477 286.766 276.052 286.682 276.61 286.343C277.025 286.091 278.3 285.882 279.445 285.878C281.914 285.87 282.136 285.533 282.136 281.792C282.136 277.96 282.498 278.804 282.798 283.335ZM248.892 281.05C250.95 281.072 251.464 281.186 250.739 281.46C249.327 281.993 244.46 281.993 244.46 281.46C244.46 281.217 244.686 281.019 244.962 281.019C245.238 281.019 245.491 280.671 245.523 280.247C245.578 279.512 245.592 279.512 245.811 280.247C245.994 280.863 246.617 281.025 248.892 281.05ZM618.837 281.681C618.842 282.651 618.945 282.996 619.065 282.447C619.186 281.898 619.181 281.104 619.055 280.683C618.93 280.261 618.831 280.71 618.837 281.681ZM582.414 293.922C582.324 296.409 582.251 294.374 582.251 289.4C582.251 284.426 582.324 282.392 582.414 284.879C582.503 287.366 582.503 291.435 582.414 293.922ZM618.837 285.209C618.842 286.18 618.945 286.525 619.065 285.976C619.186 285.427 619.181 284.633 619.055 284.212C618.93 283.79 618.831 284.239 618.837 285.209ZM274.484 284.863C273.729 284.964 272.373 284.966 271.47 284.868C270.567 284.769 271.185 284.687 272.842 284.685C274.5 284.682 275.239 284.762 274.484 284.863ZM525.406 284.858C524.788 284.963 523.658 284.966 522.894 284.865C522.13 284.763 522.636 284.677 524.017 284.674C525.399 284.671 526.024 284.754 525.406 284.858ZM320.471 297.915C321.376 298.069 321.326 298.113 320.189 298.162C319.056 298.212 318.818 298.044 318.866 297.23C318.907 296.527 318.989 296.454 319.148 296.982C319.271 297.392 319.866 297.811 320.471 297.915ZM582.385 300.759C582.259 301.183 582.155 300.836 582.155 299.987C582.155 299.138 582.259 298.791 582.385 299.215C582.511 299.639 582.511 300.334 582.385 300.759ZM323.957 299.397C323.611 299.519 323.046 299.519 322.701 299.397C322.356 299.274 322.638 299.174 323.329 299.174C324.019 299.174 324.302 299.274 323.957 299.397ZM337.027 305.129C336.687 305.249 336.009 305.257 335.52 305.145C335.031 305.033 335.31 304.934 336.139 304.925C336.967 304.916 337.367 305.008 337.027 305.129ZM449.544 305.131C449.199 305.254 448.634 305.254 448.288 305.131C447.943 305.009 448.225 304.909 448.916 304.909C449.607 304.909 449.89 305.009 449.544 305.131ZM582.415 343.988C582.338 351.206 582.274 345.301 582.274 330.865C582.274 316.43 582.338 310.524 582.415 317.742C582.493 324.959 582.493 336.771 582.415 343.988ZM648.726 305.131C649.071 305.254 649.636 305.254 649.982 305.131C650.327 305.009 650.044 304.909 649.354 304.909C648.663 304.909 648.381 305.009 648.726 305.131ZM343.423 308.636C343.423 308.731 343.084 308.809 342.669 308.809C342.255 308.809 341.916 308.617 341.916 308.382C341.916 308.147 342.255 308.069 342.669 308.208C343.084 308.348 343.423 308.541 343.423 308.636ZM347.441 310.306C347.441 310.725 345.938 310.935 345.67 310.554C345.506 310.322 345.838 310.133 346.407 310.133C346.976 310.133 347.441 310.211 347.441 310.306ZM351.058 312.868C350.59 313.279 350.321 313.279 349.853 312.868C349.384 312.456 349.518 312.338 350.456 312.338C351.393 312.338 351.527 312.456 351.058 312.868ZM356.986 316.114C356.986 316.492 356.756 316.677 356.476 316.524C356.195 316.372 356.095 316.063 356.254 315.837C356.685 315.225 356.986 315.339 356.986 316.114ZM278.053 317.037C277.106 318.04 276.515 463.82 277.453 465.127C278.124 466.063 283.331 468.494 284.665 468.494C285.149 468.494 285.675 468.791 285.834 469.155C285.993 469.519 286.43 469.817 286.805 469.817C287.18 469.817 288.017 470.313 288.666 470.92C289.316 471.526 290.179 472.023 290.586 472.023C290.993 472.023 292.275 472.706 293.436 473.541C294.597 474.376 296.993 475.813 298.763 476.735C303.699 479.306 306.445 480.938 311.432 484.264C312.978 485.295 314.41 486.138 314.614 486.138C314.818 486.138 315.562 486.62 316.268 487.21C317.925 488.592 319.8 488.994 321 488.222C321.907 487.639 321.939 485.214 321.999 410.676C322.034 368.357 321.879 333.283 321.655 332.735C321.253 331.749 319.506 330.945 297.357 321.554C293.985 320.124 290.859 318.955 290.408 318.955C289.957 318.955 288.043 318.359 286.155 317.632C282.294 316.143 279.118 315.911 278.053 317.037ZM282.032 319.82C281.609 320.415 281.305 320.524 281.056 320.172C280.593 319.513 280.989 318.955 281.918 318.955C282.516 318.955 282.536 319.11 282.032 319.82ZM287.023 320.545C286.857 320.691 286.423 320.707 286.061 320.58C285.66 320.439 285.779 320.334 286.364 320.313C286.894 320.294 287.19 320.398 287.023 320.545ZM582.416 453.606C582.339 462.158 582.277 455.161 582.277 438.057C582.277 420.952 582.339 413.955 582.416 422.507C582.491 431.06 582.491 445.054 582.416 453.606ZM582.393 472.574C582.273 473.12 582.175 472.673 582.175 471.581C582.175 470.49 582.273 470.043 582.393 470.589C582.513 471.135 582.513 472.028 582.393 472.574ZM315.657 483.758C315.49 483.904 315.057 483.92 314.695 483.793C314.294 483.652 314.413 483.548 314.998 483.526C315.528 483.507 315.824 483.612 315.657 483.758ZM582.382 484.898C582.222 485.249 582.103 485.145 582.078 484.631C582.057 484.166 582.175 483.906 582.342 484.052C582.509 484.199 582.527 484.579 582.382 484.898ZM582.394 491.978C582.274 492.527 582.171 492.182 582.165 491.211C582.16 490.241 582.258 489.792 582.384 490.213C582.509 490.635 582.514 491.429 582.394 491.978ZM582.371 495.071C582.232 495.374 582.118 495.126 582.118 494.519C582.118 493.913 582.232 493.665 582.371 493.968C582.511 494.272 582.511 494.768 582.371 495.071ZM582.412 506.319C582.318 508.2 582.241 506.661 582.241 502.901C582.241 499.14 582.318 497.602 582.412 499.482C582.506 501.363 582.506 504.439 582.412 506.319ZM582.371 516.245C582.232 516.548 582.118 516.3 582.118 515.693C582.118 515.087 582.232 514.839 582.371 515.142C582.511 515.445 582.511 515.941 582.371 516.245ZM582.412 533.911C582.319 535.901 582.244 534.154 582.244 530.029C582.245 525.905 582.321 524.277 582.413 526.412C582.506 528.547 582.505 531.921 582.412 533.911ZM582.393 563.444C582.273 563.99 582.175 563.543 582.175 562.452C582.175 561.36 582.273 560.913 582.393 561.459C582.513 562.005 582.513 562.898 582.393 563.444ZM582.407 578.872C582.301 579.909 582.213 579.17 582.211 577.229C582.209 575.288 582.296 574.439 582.404 575.343C582.512 576.246 582.513 577.834 582.407 578.872ZM582.41 599.159C582.308 600.441 582.224 599.505 582.222 597.079C582.221 594.653 582.304 593.604 582.407 594.748C582.51 595.893 582.511 597.878 582.41 599.159ZM582.394 615.049C582.274 615.598 582.171 615.253 582.165 614.283C582.16 613.312 582.258 612.863 582.384 613.285C582.509 613.707 582.514 614.501 582.394 615.049ZM582.403 683.42C582.291 684.213 582.197 683.67 582.195 682.215C582.192 680.759 582.283 680.11 582.398 680.773C582.513 681.436 582.515 682.627 582.403 683.42ZM391.648 857.118C391.196 857.374 391.133 857.548 391.493 857.552C391.822 857.556 392.231 857.36 392.402 857.118C392.787 856.57 392.613 856.57 391.648 857.118Z" fill="#042862"/>
</svg>
